<svg xmlns="http://www.w3.org/2000/svg" width="304" height="570.036" viewBox="0 0 304 570.036"><defs><style>.a{fill:#f1f1f1;}.b{fill:#fafbfc;}.c{fill:#292929;font-size:17px;font-family:Gilroy-Medium, Gilroy ☞;font-weight:500;}.c,.q{letter-spacing:0.02em;}.d{fill:#0e263e;font-size:10px;font-family:Gilroy-Regular, Gilroy-Regular ☞;opacity:0.8;}.e{fill:#e4e4e4;}.f{fill:#fab550;stroke:#fab550;}.f,.g,.h,.i,.j,.k,.l,.m{stroke-linecap:round;stroke-linejoin:round;}.f,.g,.i,.j,.l,.m{stroke-width:4px;}.g{fill:#f15d4a;stroke:#f15d4a;}.h,.i,.l,.r,.t{fill:none;}.h,.i,.j,.k{stroke:#000;}.h,.k{stroke-width:3px;}.l{stroke:#e4e4e4;}.m{fill:#abdddf;stroke:#abdddf;}.n{fill:#e5e8ed;opacity:0.65;}.o{fill:#212121;font-size:12px;}.o,.q{font-family:Gilroy-Bold, Gilroy ☞;font-weight:700;}.p,.q{fill:#fff;}.p{stroke:#ccc;stroke-width:2px;}.q{font-size:13px;}.r{stroke:#293f63;stroke-width:5px;}.s{stroke:none;}</style></defs><rect class="a" width="304" height="567.012" rx="25" transform="translate(0 3.024)"/><g transform="translate(-365.577 -2114.876)"><path class="b" d="M7.969,0H290.877c4.4,0,7.969,4.12,7.969,9.2V342.361H0V9.2C0,4.12,3.568,0,7.969,0Z" transform="translate(368.154 2342.551)"/><text class="c" transform="translate(514.731 2407.372)"><tspan x="-62.849" y="0">Select your role</tspan></text><text class="d" transform="translate(509.563 2434.546)"><tspan x="-89.615" y="0">Lorem ipsum dolor sit amet, consectetu</tspan><tspan x="-70.76" y="15">adipiscing elit. Donec vel tortor</tspan></text><g transform="translate(447.464 2138.889)"><path class="e" d="M1426.645,248.17h-.09c2.065,3.066,7.066,4.118,9.729.782a5.233,5.233,0,0,0,1.056-3.027C1435.016,247.3,1429.124,248.844,1426.645,248.17Z" transform="translate(-1360.318 -215.885)"/><path class="f" d="M1286.23,216.845c-.043,3.625-.068,7.909,3.8,7.232,2.713-.479,2.1-5.084,2.018-7.488-.054-1.524-2.962-1.975-2.962-1.975S1286.248,215.48,1286.23,216.845Z" transform="translate(-1270.55 -195.856)"/><path class="g" d="M1291.478,206.722a15.994,15.994,0,0,0-6.781.043c-.126-1.892-.36-5.866,1.124-7.149a3.209,3.209,0,0,1,5.228,2C1291.143,202.377,1291.478,206.722,1291.478,206.722Z" transform="translate(-1269.514 -185.791)"/><path class="h" d="M1287.935,264.8s-.7-8.165-1.272-12.183c-.313-2.23-1-8.525-3.092-8.165s-1.881,4.98-2.479,6.511c-.721,1.83-3.106,3.852-5.437,1.8" transform="translate(-1263.791 -214.93)"/><path class="h" d="M1253.667,204.041a11.066,11.066,0,0,1,5.045-9.649c1.722-1.113,3.8-1.553,3.491-3.373s-3.074-2.025-4.41-1.477a13.394,13.394,0,0,0-6.176,5c-1.607,2.659-2.792,4.666-2.922,10.734" transform="translate(-1246.545 -179.647)"/><path class="h" d="M1254.15,274.1c-.987-3.946-1.841-7.206-1.841-7.206a24.942,24.942,0,0,1-3.819-2.555,17.393,17.393,0,0,1-5.5-9.368c-.663-2.6-.209-5.693,3.265-4.147,1.9.847,4.785,5.765,3.866,7.927-1.315,3.113-4.025-1.175-4.623-3.023" transform="translate(-1242.728 -218.751)"/><path class="h" d="M1243.489,243.853c-1.268-5.844,4.151-6.291,6.634-2.778,1.7,2.407,5.545,10.284.36,10.284" transform="translate(-1243.093 -211.359)"/><path class="h" d="M1245.9,233.871c.8-4.767,6.406-4.173,8.648-.6.872,1.384,4.961,11.426.767,10.889" transform="translate(-1244.754 -205.981)"/><line class="h" x1="0.422" y1="2.958" transform="translate(15.291)"/><line class="h" y1="2.115" x2="1.69" transform="translate(25.012 2.112)"/><line class="h" y1="0.847" x2="1.69" transform="translate(29.74 6.072)"/><line class="h" x2="2.324" y2="0.422" transform="translate(33.051 19.018)"/><path class="h" d="M1288,304.2l-.576-4.241c-2.544.7-6.879,2.883-9.311,4.032-1.38.652-4.378,1.679-4.872,3.138-.281.861.85,5.513.85,5.513" transform="translate(-1262.221 -250.447)"/><path class="h" d="M1301.759,356.166s-3.07,4.436-5.138,6.781c-3.376,3.837-13.076,12.049-17.18,2.933-3.625-8.05-3.625-18.11-4.479-26.869-.483-4.936-.8-10.24-1.124-15.134-.187-2.85-.912-4.176,1.3-5.877,4.482-3.448,10.431-6.255,15.537-8.68,1.348,9.538,3.135,20.574-.893,29.7,1.182-3.268,2.364-5.1,3.192-4.872,1.488.411.764,5.65-.688,9.307,0-4.987,1.6-8.756,3.65-12.705s5.563-8.4,8.745-12.745c2.944-4.028,6.76-7.963,11.484-9.332" transform="translate(-1262.459 -256.024)"/><path class="h" d="M1468.767,252.7c2.5-1.8,6,.89,4.2,4.187-1.038,1.9-2.929,1.632-4.774,1.524a54.2,54.2,0,0,1-1.362,6.81c-.328,1.441-1.207,5.765-1.207,5.765" transform="translate(-1385.31 -219.848)"/><path class="h" d="M1414.215,232.526s.8-23.958,4.122-35.841" transform="translate(-1352.424 -184.387)"/><path class="h" d="M1424.075,241.13c.562,4.738,7.358,7.25,10.619,3.156.966-1.211,1.625-3.679.36-4.929-1.463-1.441-3.012-.288-4.457.393a8.315,8.315,0,0,1-5.989.36C1424.025,240.482,1424.147,240.712,1424.075,241.13Z" transform="translate(-1358.731 -211.242)"/><path class="h" d="M1426.805,248.138c2.5.688,8.4-.861,10.709-2.263" transform="translate(-1360.478 -215.852)"/><path class="h" d="M1372.195,393.668l-.839-4.72s11.89-2.854,15.616-3.6c.292,1.081.76,4.356.76,4.356" transform="translate(-1325.008 -305.068)"/><line class="i" y1="1.492" transform="translate(67.386 22.657)"/><path class="j" d="M1422.827,178.67a8.345,8.345,0,0,0,1.441,1.971c3.243,3.214,8.388.068,12.283-.025-.775,1.629-2.3,2.306-2.522,4.367s.753,3.142,2.079,4.616a11.149,11.149,0,0,1,2.616,4.994c.469,1.607.469,4.3,2.439,4.724,1.578-1.459,1.293-5.506,1.636-7.736.331-2.162.439-4.324.746-6.45.36-2.45,1.51-6.666.281-9.026-.234-.45-.923-.252-1.11-.5-.335-.443-.252-1.16-.667-1.535-1.33-1.2-3.542-1.521-5.246-1.913-1.906-.443-3.412-.544-5.131-1.513-1.171-.663-1.866-2.1-2.947-.029-.85-1.049-1.676-2.083-2.346-.1-2.108-2.674-4.324,1-4.6,3.092A8.757,8.757,0,0,0,1422.827,178.67Z" transform="translate(-1357.238 -166.924)"/><path class="h" d="M1431.874,299.636c-4.472-.2-8.2-.667-11.462-.872-2.72-.169-5.488-.9-8.147-1.229,1.7,2.162,1.02,6.846,1.877,9.574,1.2-2.883,3.675-5.441,4.789-8.331a65.085,65.085,0,0,1,3.517,10.381C1425.183,305.9,1428.271,301.722,1431.874,299.636Z" transform="translate(-1351.177 -248.898)"/><path class="h" d="M1425.853,322.575c-.433,5.027-.886,20.578-1.128,25.623" transform="translate(-1359.147 -264.916)"/><path class="k" d="M1450.122,416.724l-2.486-.245s-.613-11.2-.483-15.58a21.953,21.953,0,0,1,10.961,1.02c.5,2.389.641,12.741.641,12.741" transform="translate(-1373.483 -314.817)"/><path class="l" d="M1452.956,435.067c.443-1.632.4-4.991,2.34-5,1.672,0,3.243,2.126,4.054,4.1" transform="translate(-1376.249 -333.675)"/><path class="l" d="M1460.389,419.924c1.953.342,2.093,3.5-.137,3.344S1458.439,419.581,1460.389,419.924Z" transform="translate(-1380.909 -327.172)"/><path class="i" d="M1464.175,392.263a46.439,46.439,0,0,0,.166-4.778" transform="translate(-1384.383 -306.437)"/><path class="h" d="M1450.105,387.892s7.055-.562,10.226-1.027" transform="translate(-1375.382 -306.041)"/><path class="h" d="M1455.1,312.835c2.7,4.414-.241,8.2-2.829,10.309-3.942,3.218-6.32,5.376-10.449,8.338,4.129-2.962,6.6-2.029,6.716.2s-4.785,5.052-9.008,10.287c-1.279,1.585-2.681,3.5-4.032,5.563" transform="translate(-1366.037 -258.685)"/><path class="h" d="M1390.865,330.955c-1.15-4.684-2.421-13.184,1.676-11.847-2.407-5.682-3.993-10.929-1.759-17.036a6.085,6.085,0,0,1,6.716-3.6s-1.023,21.259-1.081,31.089" transform="translate(-1336.749 -249.431)"/><path class="h" d="M1492.171,367.445c-.3,4.619-.562,7.808-1.052,12.42-.511,4.846-1.254,11.04-1.254,11.04" transform="translate(-1400.816 -293.618)"/><path class="i" d="M1272.215,361.155l.36.072" transform="translate(-1261.59 -289.595)"/><path class="i" d="M1273.025,369.275a3.4,3.4,0,0,1,.443.22" transform="translate(-1262.109 -294.789)"/><path class="i" d="M1272.825,377.075a1.74,1.74,0,0,1,.721.22" transform="translate(-1261.98 -299.778)"/><line class="i" y1="1.495" transform="translate(72.06 21.901)"/><path class="m" d="M1365.11,413.526c2.883.281,2.7,3.65,5.9,5.736,1.333.872,3.193.476,5.434.184l.944-.141c.018-.443.04-.9.065-1.4a43.074,43.074,0,0,0,5.7-1.175l.155-.036c-.05-.422-.1-.84-.155-1.247,2.965-.667,5.585-1.319,7.906-1.924h0c-1.114-3.65-3.866-20.131-3.866-20.131s-11.847,2.472-14.925,3.135c-2.522.544-10.777,3.084-10.777,3.084.321,5.538,2.652,18.438,2.652,18.438l.465,1.593C1364.324,417.2,1363.968,413.411,1365.11,413.526Z" transform="translate(-1318.694 -310.218)"/><path class="h" d="M1449.379,349.9c-1.852.36-3.964,1.722-4.324,3.643,1.524.494,3,1.333,3.437,2.951-3.189-5.153-8.114-1.488-26.887,2.731.5,3.83.8,8.37,1.031,11.941a87.493,87.493,0,0,1,0,10.95s12.691-2.475,19-4.782c4.068-1.488,18.96-5.156,21.821-8.7,3.207-3.964,2.814-12.251,2.814-22.556s1.124-20.686-1.755-27.547c-2.494-5.931-10.071-9.462-18.323-10.392-2.068-2.656-8.745-2.645-8.745-2.645s-2.987,5.311-3.938,7.379a148.044,148.044,0,0,0-8.637,22.967" transform="translate(-1357.151 -253.99)"/><path class="h" d="M1410.724,458.155a46.262,46.262,0,0,1-5.7,1.175c-.223,3.964-.043,6.01-.043,10,0,2.962-.328,7.091-.389,10l7.239-.987" transform="translate(-1346.271 -351.643)"/><path class="h" d="M1362.444,461.6c-4.929.267-3.373,7.776-3.373,11.1,0,2.407-.249,4.929,1.171,6.958,1.6,2.284,3.906,1.935,6.461,1.69,2.746-.259,5.275-1.023,7.851-1.42" transform="translate(-1317.001 -353.843)"/><path class="h" d="M1381.482,455.181c-2.241.292-4.1.688-5.434-.184-3.2-2.086-3.009-5.455-5.9-5.736-1.531-.151-.36,6.688-.317,7.927" transform="translate(-1323.734 -345.952)"/><path class="h" d="M1359.485,490.275c.227.995,1.748,2.032,3.1,2.212" transform="translate(-1317.415 -372.189)"/><path class="h" d="M1359.625,502.375c.22.886,3.066,1.8,3.964,1.769" transform="translate(-1317.504 -379.929)"/><line class="h" x2="0.786" y2="0.98" transform="translate(75.379 126.377)"/><line class="h" x2="0.782" y2="1.175" transform="translate(78.337 125.512)"/><line class="h" x2="0.786" y2="1.178" transform="translate(72.597 127.09)"/><path class="h" d="M1412.675,501.676s-.685,25.644-.7,31.582c-.021,6.915-.36,13.31,0,20.243,3.964,1.182,4.955,1.668,9.17,1.935,4.81.306,15.216.465,19.872-.721,2.245-.569,5.718-.886,7.455-2.58.994-.973,2.259-4.8-.45-3.419.191-1.11,2.976-4.735-.2-4.126,2.465-6.594.962-23.572,1.269-27.561.245-3.138,0-11.494-.022-14.615-.04-2.663.36-8.81.36-8.81" transform="translate(-1350.884 -374.319)"/><path class="h" d="M1352.107,413.749c.05,4.5.1,13.642-.083,18.139-.422,10.035.486,20.92-.047,30.966a51.079,51.079,0,0,1-6.208.382c-3.416,0-6.547-.36-7.534-.382,0-2.447.36-12.118.378-14.413.047-3.913.144-8.558.385-12.449.591-9.527,1.744-19.018,2.205-28.541a237.409,237.409,0,0,1,4.684-36.991c.45-2.3,4.028-15.415,4.028-15.415" transform="translate(-1303.822 -285.686)"/><path class="h" d="M1346.411,528.305a55.939,55.939,0,0,0-5.106,6.356" transform="translate(-1305.786 -396.517)"/><path class="j" d="M1402.81,516.623s-6.176,36.027-1.119,51.1c.923,2.75,22.871,1.415,22.871,2,0,2.238.041,11.121,0,12.456-.1,3.34-.051,6.655-.223,9.988-.112,2.162.119,4.843.137,7.3.021,2.775-1.056,4.85-4.025,5.008-3.027.162-6.125.076-9.159.137-3.423.076-7.17.382-10.561-.1-3.6-.512-3.913-1.481-4.173-4.731-.313-3.906-.551-7.787-.551-11.718a81.3,81.3,0,0,1,.313-8.6c.511-4.818.148-9.783.112-14.636-.043-5.374,1.457-3.763,1.361-9.134-.158-8.914,1.4-40.093,1.4-40.093" transform="translate(-1340.769 -388.123)"/><path class="j" d="M1354.931,627.714c-.1,5.142-.573,10.615.18,15.681s-.234,10.28.292,15.4c.133,1.308-.151,4.09.656,5.095,1.128,1.4,9.3,0,11,0,1.224,0,.258-14.689.968-26,.193-3.068,1.13-59.466,1.13-59.466a33.492,33.492,0,0,1-4.086.6c-1.64-1.479-2.274,48.694-2.274,48.694" transform="translate(-1314.349 -450.19)"/><path class="j" d="M1426.757,782.312h-23.421a.865.865,0,0,1-.753-.926.858.858,0,0,0,0-.094,1.038,1.038,0,0,1,.335-.886c2.71-1.924,7.026-1.16,10.629-1.441,2.771-.2,6.45-.27,9.2-.465a13.693,13.693,0,0,1,3.848-.086A11.58,11.58,0,0,1,1426.757,782.312Z" transform="translate(-1344.979 -556.428)"/><path class="j" d="M1377.307,781.172h-21.619a1.038,1.038,0,0,1-1.034-.933h0a1.023,1.023,0,0,1,.461-.973c3.311-2.119,9.84-1.1,13.451-1.041a70.225,70.225,0,0,0,8.183-.389Z" transform="translate(-1314.32 -556.135)"/><path class="h" d="M1358.845,477.225a3.518,3.518,0,0,0,2.883,2.569" transform="translate(-1317.005 -363.841)"/><path class="h" d="M1444.2,534.705c4.706,2.029,8.2,6.453,12.165,9.5" transform="translate(-1371.602 -400.61)"/><path class="l" d="M1456.155,409.616c.465-.267,2.248-1.312,2.266-.108.807-.256,2.31-.94,2.634.4" transform="translate(-1379.252 -320.162)"/><path class="i" d="M1417.393,770.254c-.079-1.715-.032-4.969-.032-4.969" transform="translate(-1354.427 -548.107)"/><path class="i" d="M1465.006,763.985l-.191,5.8" transform="translate(-1384.792 -547.276)"/><path class="i" d="M1372.27,765.812c-.068-2.364.292-4.684.274-7.037" transform="translate(-1325.587 -543.942)"/></g><g transform="translate(402.474 2540.153)"><g transform="translate(0 0)"><rect class="n" width="231.213" height="51.269" rx="6"/><text class="o" transform="translate(22.116 29.09)"><tspan x="0" y="0">Patients &amp; Others</tspan></text><g transform="translate(195.023 15.079)"><g class="p" transform="translate(0 0)"><rect class="s" width="22.116" height="22.116" rx="6"/><rect class="t" x="1" y="1" width="20.116" height="20.116" rx="5"/></g></g></g></g><g transform="translate(402.474 2605.496)"><rect width="230.208" height="43.227" rx="10" transform="translate(0 0)"/><g transform="translate(86.454 14.074)"><text class="q" transform="translate(0 13)"><tspan x="0" y="0">Continue</tspan></text></g></g><g transform="translate(402.474 2478.831)"><g transform="translate(0 0)"><rect class="n" width="231.213" height="51.269" rx="6"/><text class="o" transform="translate(22.116 30.095)"><tspan x="0" y="0">Health care professional</tspan></text></g><g transform="translate(195.023 15.079)"><g class="p" transform="translate(0 0)"><rect class="s" width="22.116" height="22.116" rx="6"/><rect class="t" x="1" y="1" width="20.116" height="20.116" rx="5"/></g></g></g></g><g class="r"><rect class="s" width="304" height="570.036" rx="30"/><rect class="t" x="2.5" y="2.5" width="299" height="565.036" rx="27.5"/></g></svg>