<svg xmlns="http://www.w3.org/2000/svg" width="482.34" height="385.069" viewBox="0 0 482.34 385.069"><defs><style>.a,.b,.c,.e{fill:none;}.a,.b{stroke:#ff004c;}.a{stroke-width:2px;}.d,.f{stroke:none;}.f{fill:#ff004c;}</style></defs><g transform="translate(-928.5 -236.431)"><g transform="translate(1002.501 350.818)"><g class="a" transform="translate(0.499 15.182)"><ellipse class="d" cx="20.5" cy="21" rx="20.5" ry="21"/><ellipse class="e" cx="20.5" cy="21" rx="19.5" ry="20"/></g><g class="b" transform="translate(39.499 32.182)"><rect class="d" width="3" height="9" rx="1.5"/><rect class="e" x="0.5" y="0.5" width="2" height="8" rx="1"/></g><g class="b" transform="translate(34.427 55.308) rotate(90)"><rect class="d" width="3.386" height="27.09" rx="1.693"/><rect class="e" x="0.5" y="0.5" width="2.386" height="26.09" rx="1.193"/></g><g class="b" transform="translate(33.298 59.823) rotate(90)"><rect class="d" width="3.386" height="24.832" rx="1.693"/><rect class="e" x="0.5" y="0.5" width="2.386" height="23.832" rx="1.193"/></g><g class="b" transform="translate(32.298 64.338) rotate(90)"><rect class="d" width="3.386" height="22.832" rx="1.693"/><rect class="e" x="0.5" y="0.5" width="2.386" height="21.832" rx="1.193"/></g><g class="b" transform="translate(31.04 68.853) rotate(90)"><rect class="d" width="3.386" height="20.317" rx="1.693"/><rect class="e" x="0.5" y="0.5" width="2.386" height="19.317" rx="1.193"/></g><g transform="translate(7.337)"><g class="b" transform="translate(0 16.931) rotate(-90)"><rect class="d" width="3.386" height="27.09" rx="1.693"/><rect class="e" x="0.5" y="0.5" width="2.386" height="26.09" rx="1.193"/></g><g class="b" transform="translate(1.129 12.416) rotate(-90)"><rect class="d" width="3.386" height="24.832" rx="1.693"/><rect class="e" x="0.5" y="0.5" width="2.386" height="23.832" rx="1.193"/></g><g class="b" transform="translate(2.129 7.901) rotate(-90)"><rect class="d" width="3.386" height="22.832" rx="1.693"/><rect class="e" x="0.5" y="0.5" width="2.386" height="21.832" rx="1.193"/></g><g class="b" transform="translate(3.386 3.386) rotate(-90)"><rect class="d" width="3.386" height="20.317" rx="1.693"/><rect class="e" x="0.5" y="0.5" width="2.386" height="19.317" rx="1.193"/></g></g></g><g class="b" transform="translate(1089.168 376.395) rotate(-90)"><rect class="d" width="139.964" height="222.362" rx="3"/><rect class="e" x="0.5" y="0.5" width="138.964" height="221.362" rx="2.5"/></g><g class="b" transform="translate(929.5 621.5) rotate(-90)"><rect class="d" width="118.518" height="94.814" rx="3"/><rect class="e" x="0.5" y="0.5" width="117.518" height="93.814" rx="2.5"/></g><g transform="translate(1062.625 469.12)"><g class="b" transform="translate(19.929 110.617) rotate(-90)"><rect class="d" width="110.617" height="169.311" rx="3"/><rect class="e" x="0.5" y="0.5" width="109.617" height="168.311" rx="2.5"/></g><g class="c" transform="translate(0 151.899) rotate(-90)"><path class="d" d="M3.386,0,35.639,19.929c1.87,0,3.386,3.774,3.386,5.644V183.6c0,1.87-1.516,5.644-3.386,5.644l-32.253,19.9A3.386,3.386,0,0,1,0,205.756V3.386A3.386,3.386,0,0,1,3.386,0Z"/><path class="f" d="M 3.125152587890625 1.014190673828125 C 1.931697845458984 1.14459228515625 1.000003814697266 2.158645629882812 1.000003814697266 3.38623046875 L 1.000003814697266 205.7560424804688 C 1.000003814697266 206.9837188720703 1.931900024414062 207.997802734375 3.125465393066406 208.1281127929688 L 35.11379241943359 188.3890991210938 L 35.3552131652832 188.2401275634766 L 35.63892364501953 188.2401275634766 C 35.97924041748047 188.2401275634766 36.57734298706055 187.7508697509766 37.14634323120117 186.6578369140625 C 37.66376495361328 185.6638336181641 38.02516174316406 184.4049377441406 38.02516174316406 183.5964202880859 L 38.02516174316406 25.57255554199219 C 38.02516174316406 24.76402282714844 37.66376495361328 23.505126953125 37.14634323120117 22.51112365722656 C 36.57734298706055 21.41810607910156 35.97924041748047 20.9288330078125 35.63892364501953 20.9288330078125 L 35.35489654541016 20.9288330078125 L 35.11326599121094 20.77955627441406 L 3.125152587890625 1.014190673828125 M 3.386238098144531 0 L 35.63892364501953 19.9288330078125 C 37.50907897949219 19.9288330078125 39.0251579284668 23.702392578125 39.0251579284668 25.57255554199219 L 39.0251579284668 183.5964202880859 C 39.0251579284668 185.4665832519531 37.50907897949219 189.2401275634766 35.63892364501953 189.2401275634766 L 3.386238098144531 209.1422576904297 C 1.516056060791016 209.1422576904297 3.814697265625e-06 207.6262054443359 3.814697265625e-06 205.7560424804688 L 3.814697265625e-06 3.38623046875 C 3.814697265625e-06 1.516082763671875 1.516056060791016 0 3.386238098144531 0 Z"/></g><g class="c" transform="translate(13.507 136.446) rotate(-90)"><path class="d" d="M1.678,0l15.2,11.114c.927,0,1.678,1.32,1.678,2.949l-.078,154.119c0,1.629-.751,4.078-1.678,4.078l-15.123,9.87c-.927,0-1.678-1.32-1.678-2.949V2.949C0,1.32.751,0,1.678,0Z"/><path class="f" d="M 1.521284103393555 1.124191284179688 C 1.305076599121094 1.371292114257812 0.9999923706054688 1.981094360351562 0.9999923706054688 2.9488525390625 L 0.9999923706054688 93.84104919433594 L 0.9999923706054688 179.1800079345703 C 0.9999923706054688 180.1769866943359 1.32374382019043 180.7940368652344 1.5384521484375 181.0258331298828 L 16.25444412231445 171.4217376708984 L 16.50351524353027 171.2591705322266 L 16.64723968505859 171.2591705322266 C 16.75283432006836 171.1340942382812 16.96005249023438 170.8037567138672 17.15713500976562 170.1678161621094 C 17.35868263244629 169.5174713134766 17.4789924621582 168.7749481201172 17.4789924621582 168.1810760498047 L 17.55680084228516 14.06263732910156 C 17.55680084228516 12.8017578125 17.03894424438477 12.14854431152344 16.87877655029297 12.11378479003906 L 16.55220603942871 12.11378479003906 L 16.2885627746582 11.92105102539062 L 1.521284103393555 1.124191284179688 M 1.678014755249023 0 L 16.87877655029297 11.11378479003906 C 17.80551528930664 11.11378479003906 18.55680084228516 12.43405151367188 18.55680084228516 14.06263732910156 L 18.4789924621582 168.1815795898438 C 18.4789924621582 169.8101654052734 17.72770690917969 172.2591705322266 16.80096817016602 172.2591705322266 L 1.678014755249023 182.1288604736328 C 0.7512779235839844 182.1288604736328 -7.62939453125e-06 180.80859375 -7.62939453125e-06 179.1800079345703 L -7.62939453125e-06 93.84104919433594 L -7.62939453125e-06 2.9488525390625 C -7.62939453125e-06 1.320236206054688 0.7512779235839844 0 1.678014755249023 0 Z"/></g></g><g transform="translate(1119.266 422.614)"><g class="b" transform="translate(0 11.287) rotate(-90)"><rect class="d" width="11.287" height="191.886" rx="3"/><rect class="e" x="0.5" y="0.5" width="10.287" height="190.886" rx="2.5"/></g><g class="b" transform="translate(81.269 6.772) rotate(-90)"><path class="d" d="M2.9,0h0a.484.484,0,0,1,.484.484v28.38a.484.484,0,0,1-.484.484h0a2.9,2.9,0,0,1-2.9-2.9V2.9A2.9,2.9,0,0,1,2.9,0Z"/><path class="e" d="M2.687.5h0a.2.2,0,0,1,.2.2v27.95a.2.2,0,0,1-.2.2h0A2.187,2.187,0,0,1,.5,26.66V2.687A2.187,2.187,0,0,1,2.687.5Z"/></g></g><g transform="translate(929.452 356.662)"><g class="b" transform="translate(0 51.922) rotate(-90)"><rect class="d" width="38.377" height="32.734" rx="3"/><rect class="e" x="0.5" y="0.5" width="37.377" height="31.734" rx="2.5"/></g><g class="b" transform="translate(5.644 12.416) rotate(-90)"><path class="d" d="M2,0H8.416a4,4,0,0,1,4,4V17.446a4,4,0,0,1-4,4H2a2,2,0,0,1-2-2V2A2,2,0,0,1,2,0Z"/><path class="e" d="M2,.5H8.416a3.5,3.5,0,0,1,3.5,3.5V17.446a3.5,3.5,0,0,1-3.5,3.5H2a1.5,1.5,0,0,1-1.5-1.5V2A1.5,1.5,0,0,1,2,.5Z"/></g><g class="b" transform="translate(5.644 65.467) rotate(-90)"><path class="d" d="M4,0h6.416a2,2,0,0,1,2,2V19.446a2,2,0,0,1-2,2H4a4,4,0,0,1-4-4V4A4,4,0,0,1,4,0Z"/><path class="e" d="M4,.5h6.416a1.5,1.5,0,0,1,1.5,1.5V19.446a1.5,1.5,0,0,1-1.5,1.5H4a3.5,3.5,0,0,1-3.5-3.5V4A3.5,3.5,0,0,1,4,.5Z"/></g><g class="b" transform="translate(32.548 27.338)"><rect class="d" width="2" height="9" rx="1"/><rect class="e" x="0.5" y="0.5" width="1" height="8" rx="0.5"/></g></g><g transform="translate(1359.838 257.629)"><g class="b" transform="translate(0 85.784) rotate(-90)"><rect class="d" width="85.784" height="30.476" rx="5"/><rect class="e" x="0.5" y="0.5" width="84.784" height="29.476" rx="4.5"/></g><g class="b" transform="translate(3.386 49.665) rotate(-90)"><rect class="d" width="10.159" height="24.832" rx="5"/><rect class="e" x="0.5" y="0.5" width="9.159" height="23.832" rx="4.5"/></g><g class="b" transform="translate(4.386 61.081) rotate(-90)"><rect class="d" width="8.159" height="8.159" rx="4.079"/><rect class="e" x="0.5" y="0.5" width="7.159" height="7.159" rx="3.579"/></g><g class="b" transform="translate(4.386 36.248) rotate(-90)"><rect class="d" width="8.159" height="8.159" rx="4.079"/><rect class="e" x="0.5" y="0.5" width="7.159" height="7.159" rx="3.579"/></g><g class="b" transform="translate(19.06 61.081) rotate(-90)"><rect class="d" width="8.159" height="8.159" rx="4.079"/><rect class="e" x="0.5" y="0.5" width="7.159" height="7.159" rx="3.579"/></g><g class="b" transform="translate(19.06 36.248) rotate(-90)"><rect class="d" width="8.159" height="8.159" rx="4.079"/><rect class="e" x="0.5" y="0.5" width="7.159" height="7.159" rx="3.579"/></g></g><g transform="translate(0 27)"><g transform="translate(1351.808 356.246)"><g class="b" transform="translate(0 100.458) rotate(-90)"><rect class="d" width="100.458" height="47.407" rx="5"/><rect class="e" x="0.5" y="0.5" width="99.458" height="46.407" rx="4.5"/></g><g class="b" transform="translate(20.317 95.943) rotate(-90)"><rect class="d" width="6.772" height="6.772" rx="3"/><rect class="e" x="0.5" y="0.5" width="5.772" height="5.772" rx="2.5"/></g></g></g><g transform="translate(789.34 1920.822) rotate(-90)"><g transform="translate(1311.173 502.982)"><g class="b" transform="translate(0 118.518) rotate(-90)"><rect class="d" width="118.518" height="94.814" rx="3"/><rect class="e" x="0.5" y="0.5" width="117.518" height="93.814" rx="2.5"/></g><g class="b" transform="translate(46.021 9.287) rotate(-90)"><rect class="d" width="2.772" height="2.772" rx="1.386"/><rect class="e" x="0.5" y="0.5" width="1.772" height="1.772" rx="0.886"/></g><g class="b" transform="translate(44.021 114.003) rotate(-90)"><rect class="d" width="6.772" height="6.772" rx="3"/><rect class="e" x="0.5" y="0.5" width="5.772" height="5.772" rx="2.5"/></g></g></g><g transform="translate(7 -10)"><g class="b" transform="translate(921.5 488.5) rotate(-90)"><path class="d" d="M3,0h8.518a1,1,0,0,1,1,1V89.814a1,1,0,0,1-1,1H3a3,3,0,0,1-3-3V3A3,3,0,0,1,3,0Z"/><path class="e" d="M3,.5h8.518a.5.5,0,0,1,.5.5V89.814a.5.5,0,0,1-.5.5H3a2.5,2.5,0,0,1-2.5-2.5V3A2.5,2.5,0,0,1,3,.5Z"/></g><g class="c" transform="translate(921.625 473.956) rotate(-90)"><path class="d" d="M1.466,0,15.432,8.629c.81,0,1.466,1.634,1.466,2.444V79.5c0,.81-.656,2.444-1.466,2.444L1.466,90.56A1.466,1.466,0,0,1,0,89.094V1.466A1.466,1.466,0,0,1,1.466,0Z"/><path class="f" d="M 1.260087013244629 1.048103332519531 C 1.106119155883789 1.12432861328125 1.000004768371582 1.283134460449219 1.000004768371582 1.46624755859375 L 1.000004768371582 89.09361267089844 C 1.000004768371582 89.27683258056641 1.106231689453125 89.43570709228516 1.26032829284668 89.51188659667969 L 14.90674209594727 81.09111022949219 L 15.14818000793457 80.94212341308594 L 15.3248119354248 80.94212341308594 C 15.5554723739624 80.73037719726562 15.8981294631958 79.94044494628906 15.8981294631958 79.49837493896484 L 15.8981294631958 11.07307434082031 C 15.8981294631958 10.63099670410156 15.5554723739624 9.841056823730469 15.32480144500732 9.629310607910156 L 15.14785480499268 9.629310607910156 L 14.90622997283936 9.480010986328125 L 1.260087013244629 1.048103332519531 M 1.466254234313965 0 L 15.43187999725342 8.629310607910156 C 16.24166679382324 8.629310607910156 16.89813041687012 10.26327514648438 16.89813041687012 11.07307434082031 L 16.89813041687012 79.49837493896484 C 16.89813041687012 80.30816650390625 16.24166679382324 81.94212341308594 15.43187999725342 81.94212341308594 L 1.466254234313965 90.55987548828125 C 0.6564674377441406 90.55987548828125 3.814697265625e-06 89.90341186523438 3.814697265625e-06 89.09361267089844 L 3.814697265625e-06 1.46624755859375 C 3.814697265625e-06 0.656463623046875 0.6564674377441406 0 1.466254234313965 0 Z"/></g></g><g transform="translate(30 23)"><g class="b" transform="translate(938.168 277.395) rotate(-90)"><rect class="d" width="12.964" height="69.362" rx="3"/><rect class="e" x="0.5" y="0.5" width="11.964" height="68.362" rx="2.5"/></g><g class="b" transform="translate(932.168 283.395) rotate(-90)"><path class="d" d="M3.49,0h6.857a2.617,2.617,0,0,1,2.617,2.617V3.49a.872.872,0,0,1-.872.872H.872A.872.872,0,0,1,0,3.49v0A3.49,3.49,0,0,1,3.49,0Z"/><path class="e" d="M3.442.5h6.921a2.1,2.1,0,0,1,2.1,2.1v.841a.42.42,0,0,1-.42.42H.92a.42.42,0,0,1-.42-.42v0A2.942,2.942,0,0,1,3.442.5Z"/></g><g class="b" transform="translate(1009.168 283.395) rotate(-90)"><path class="d" d="M.872,0H12.092a.872.872,0,0,1,.872.872v.872a2.617,2.617,0,0,1-2.617,2.617H3.49A3.49,3.49,0,0,1,0,.872v0A.872.872,0,0,1,.872,0Z"/><path class="e" d="M.92.5H12.044a.42.42,0,0,1,.42.42v.841a2.1,2.1,0,0,1-2.1,2.1H3.442A2.942,2.942,0,0,1,.5.92v0A.42.42,0,0,1,.92.5Z"/></g><g class="b" transform="translate(938.168 301.395) rotate(-90)"><path class="d" d="M15,0h3.964a3,3,0,0,1,3,3V29.362a3,3,0,0,1-3,3H6a6,6,0,0,1-6-6V15A15,15,0,0,1,15,0Z"/><path class="e" d="M15,.5h3.964a2.5,2.5,0,0,1,2.5,2.5V29.362a2.5,2.5,0,0,1-2.5,2.5H6a5.5,5.5,0,0,1-5.5-5.5V15A14.5,14.5,0,0,1,15,.5Z"/></g><g class="b" transform="translate(973.168 301.395) rotate(-90)"><path class="d" d="M6,0H18.964a3,3,0,0,1,3,3V29.362a3,3,0,0,1-3,3H15a15,15,0,0,1-15-15V6A6,6,0,0,1,6,0Z"/><path class="e" d="M6,.5H18.964a2.5,2.5,0,0,1,2.5,2.5V29.362a2.5,2.5,0,0,1-2.5,2.5H15A14.5,14.5,0,0,1,.5,17.362V6A5.5,5.5,0,0,1,6,.5Z"/></g></g><g class="b" transform="translate(950.325 613.627) rotate(180)"><rect class="d" width="6.772" height="4.772" rx="2.386"/><rect class="e" x="0.5" y="0.5" width="5.772" height="3.772" rx="1.886"/></g><g class="b" transform="translate(980.325 614.627) rotate(180)"><rect class="d" width="6.772" height="6.772" rx="3.386"/><rect class="e" x="0.5" y="0.5" width="5.772" height="5.772" rx="2.886"/></g><g class="c" transform="translate(1004 614) rotate(-90)"><path class="d" d="M2.106,1.789a1,1,0,0,1,1.789,0L5.276,4.553A1,1,0,0,1,4.382,6H1.618A1,1,0,0,1,.724,4.553Z"/><path class="f" d="M 2.999999761581421 2.236063003540039 L 1.618319511413574 5.000002861022949 L 4.381839752197266 4.999753475189209 L 3.000009775161743 2.236073017120361 C 3.000008106231689 2.236069679260254 3.000006437301636 2.236066341400146 3.000004768371582 2.236063003540039 C 3.000003099441528 2.236063003540039 3.000001430511475 2.236063003540039 2.999999761581421 2.236063003540039 M 2.999999761581421 1.23606538772583 C 3.355082273483276 1.23606538772583 3.710164785385132 1.420328140258789 3.894429683685303 1.788853168487549 L 5.276389598846436 4.552783012390137 C 5.608839988708496 5.217682838439941 5.125349998474121 6.000002861022949 4.381969928741455 6.000002861022949 L 1.618029594421387 6.000002861022949 C 0.8746495246887207 6.000002861022949 0.3911595344543457 5.217682838439941 0.7236099243164062 4.552783012390137 L 2.105569839477539 1.788853168487549 C 2.28983473777771 1.420328140258789 2.644917249679565 1.23606538772583 2.999999761581421 1.23606538772583 Z"/></g></g></svg>