<svg xmlns="http://www.w3.org/2000/svg" width="139.702" height="156.674" viewBox="0 0 139.702 156.674"><defs><style>.a{opacity:0.1;}.b{fill:#262389;}</style></defs><g transform="translate(-2509.906 -993.685) rotate(-60)"><g class="a" transform="translate(311.729 2718.214) rotate(-30)"><path class="b" d="M4.467,2.234A2.233,2.233,0,1,1,2.234,0,2.233,2.233,0,0,1,4.467,2.234Z"/><path class="b" d="M4.467,2.234A2.233,2.233,0,1,1,2.233,0,2.233,2.233,0,0,1,4.467,2.234Z" transform="translate(15.165 0)"/><path class="b" d="M4.467,2.234A2.233,2.233,0,1,1,2.233,0,2.233,2.233,0,0,1,4.467,2.234Z" transform="translate(30.331 0)"/><path class="b" d="M4.468,2.234A2.234,2.234,0,1,1,2.234,0,2.234,2.234,0,0,1,4.468,2.234Z" transform="translate(45.495 0)"/><path class="b" d="M4.468,2.234A2.234,2.234,0,1,1,2.234,0,2.234,2.234,0,0,1,4.468,2.234Z" transform="translate(60.66 0)"/><path class="b" d="M4.468,2.234A2.234,2.234,0,1,1,2.234,0,2.234,2.234,0,0,1,4.468,2.234Z" transform="translate(75.825 0)"/><path class="b" d="M4.467,2.234A2.233,2.233,0,1,1,2.234,0,2.233,2.233,0,0,1,4.467,2.234Z" transform="translate(90.99 0)"/><path class="b" d="M4.467,2.233A2.233,2.233,0,1,1,2.234,0,2.233,2.233,0,0,1,4.467,2.233Z" transform="translate(0 15.165)"/><path class="b" d="M4.467,2.233A2.233,2.233,0,1,1,2.233,0,2.233,2.233,0,0,1,4.467,2.233Z" transform="translate(15.165 15.165)"/><path class="b" d="M4.467,2.233A2.233,2.233,0,1,1,2.233,0,2.233,2.233,0,0,1,4.467,2.233Z" transform="translate(30.331 15.165)"/><path class="b" d="M4.468,2.233A2.234,2.234,0,1,1,2.234,0,2.234,2.234,0,0,1,4.468,2.233Z" transform="translate(45.495 15.165)"/><path class="b" d="M4.468,2.233A2.234,2.234,0,1,1,2.234,0,2.234,2.234,0,0,1,4.468,2.233Z" transform="translate(60.66 15.165)"/><path class="b" d="M4.468,2.233A2.234,2.234,0,1,1,2.234,0,2.234,2.234,0,0,1,4.468,2.233Z" transform="translate(75.825 15.165)"/><path class="b" d="M4.467,2.233A2.233,2.233,0,1,1,2.234,0,2.233,2.233,0,0,1,4.467,2.233Z" transform="translate(90.99 15.165)"/><path class="b" d="M4.467,2.234A2.233,2.233,0,1,1,2.234,0,2.233,2.233,0,0,1,4.467,2.234Z" transform="translate(0 30.329)"/><path class="b" d="M4.467,2.234A2.233,2.233,0,1,1,2.233,0,2.233,2.233,0,0,1,4.467,2.234Z" transform="translate(15.165 30.329)"/><path class="b" d="M4.467,2.234A2.233,2.233,0,1,1,2.233,0,2.233,2.233,0,0,1,4.467,2.234Z" transform="translate(30.331 30.329)"/><path class="b" d="M4.468,2.234A2.234,2.234,0,1,1,2.234,0,2.234,2.234,0,0,1,4.468,2.234Z" transform="translate(45.495 30.329)"/><path class="b" d="M4.468,2.234A2.234,2.234,0,1,1,2.234,0,2.234,2.234,0,0,1,4.468,2.234Z" transform="translate(60.66 30.329)"/><path class="b" d="M4.468,2.234A2.234,2.234,0,1,1,2.234,0,2.234,2.234,0,0,1,4.468,2.234Z" transform="translate(75.825 30.329)"/><path class="b" d="M4.467,2.234A2.233,2.233,0,1,1,2.234,0,2.233,2.233,0,0,1,4.467,2.234Z" transform="translate(90.99 30.329)"/><path class="b" d="M4.467,2.234A2.233,2.233,0,1,1,2.234,0,2.234,2.234,0,0,1,4.467,2.234Z" transform="translate(0 45.495)"/><path class="b" d="M4.467,2.234A2.233,2.233,0,1,1,2.233,0,2.234,2.234,0,0,1,4.467,2.234Z" transform="translate(15.165 45.495)"/><path class="b" d="M4.467,2.234A2.233,2.233,0,1,1,2.233,0,2.234,2.234,0,0,1,4.467,2.234Z" transform="translate(30.331 45.495)"/><path class="b" d="M4.468,2.234A2.234,2.234,0,1,1,2.234,0,2.234,2.234,0,0,1,4.468,2.234Z" transform="translate(45.495 45.495)"/><path class="b" d="M4.468,2.234A2.234,2.234,0,1,1,2.234,0,2.234,2.234,0,0,1,4.468,2.234Z" transform="translate(60.66 45.495)"/><path class="b" d="M4.468,2.234A2.234,2.234,0,1,1,2.234,0,2.234,2.234,0,0,1,4.468,2.234Z" transform="translate(75.825 45.495)"/><path class="b" d="M4.467,2.234A2.233,2.233,0,1,1,2.234,0,2.234,2.234,0,0,1,4.467,2.234Z" transform="translate(90.99 45.495)"/><path class="b" d="M4.467,2.234A2.233,2.233,0,1,1,2.234,0,2.234,2.234,0,0,1,4.467,2.234Z" transform="translate(0 60.66)"/><path class="b" d="M4.467,2.234A2.233,2.233,0,1,1,2.233,0,2.234,2.234,0,0,1,4.467,2.234Z" transform="translate(15.165 60.66)"/><path class="b" d="M4.467,2.234A2.233,2.233,0,1,1,2.233,0,2.234,2.234,0,0,1,4.467,2.234Z" transform="translate(30.331 60.66)"/><path class="b" d="M4.468,2.234A2.234,2.234,0,1,1,2.234,0,2.235,2.235,0,0,1,4.468,2.234Z" transform="translate(45.495 60.66)"/><path class="b" d="M4.468,2.234A2.234,2.234,0,1,1,2.234,0,2.235,2.235,0,0,1,4.468,2.234Z" transform="translate(60.66 60.66)"/><path class="b" d="M4.468,2.234A2.234,2.234,0,1,1,2.234,0,2.235,2.235,0,0,1,4.468,2.234Z" transform="translate(75.825 60.66)"/><path class="b" d="M4.467,2.234A2.233,2.233,0,1,1,2.234,0,2.234,2.234,0,0,1,4.467,2.234Z" transform="translate(90.99 60.66)"/></g><g class="a" transform="translate(296 2813.405) rotate(-30)"><path class="b" d="M4.467,2.234A2.233,2.233,0,1,1,2.234,0,2.233,2.233,0,0,1,4.467,2.234Z"/><path class="b" d="M4.467,2.234A2.233,2.233,0,1,1,2.233,0,2.233,2.233,0,0,1,4.467,2.234Z" transform="translate(15.165 0)"/><path class="b" d="M4.467,2.234A2.233,2.233,0,1,1,2.233,0,2.233,2.233,0,0,1,4.467,2.234Z" transform="translate(30.331 0)"/><path class="b" d="M4.468,2.234A2.234,2.234,0,1,1,2.234,0,2.234,2.234,0,0,1,4.468,2.234Z" transform="translate(45.495 0)"/><path class="b" d="M4.468,2.234A2.234,2.234,0,1,1,2.234,0,2.234,2.234,0,0,1,4.468,2.234Z" transform="translate(60.66 0)"/><path class="b" d="M4.468,2.234A2.234,2.234,0,1,1,2.234,0,2.234,2.234,0,0,1,4.468,2.234Z" transform="translate(75.825 0)"/><path class="b" d="M4.467,2.234A2.233,2.233,0,1,1,2.234,0,2.233,2.233,0,0,1,4.467,2.234Z" transform="translate(90.99 0)"/><path class="b" d="M4.467,2.233A2.233,2.233,0,1,1,2.234,0,2.233,2.233,0,0,1,4.467,2.233Z" transform="translate(0 15.165)"/><path class="b" d="M4.467,2.233A2.233,2.233,0,1,1,2.233,0,2.233,2.233,0,0,1,4.467,2.233Z" transform="translate(15.165 15.165)"/><path class="b" d="M4.467,2.233A2.233,2.233,0,1,1,2.233,0,2.233,2.233,0,0,1,4.467,2.233Z" transform="translate(30.331 15.165)"/><path class="b" d="M4.468,2.233A2.234,2.234,0,1,1,2.234,0,2.234,2.234,0,0,1,4.468,2.233Z" transform="translate(45.495 15.165)"/><path class="b" d="M4.468,2.233A2.234,2.234,0,1,1,2.234,0,2.234,2.234,0,0,1,4.468,2.233Z" transform="translate(60.66 15.165)"/><path class="b" d="M4.468,2.233A2.234,2.234,0,1,1,2.234,0,2.234,2.234,0,0,1,4.468,2.233Z" transform="translate(75.825 15.165)"/><path class="b" d="M4.467,2.233A2.233,2.233,0,1,1,2.234,0,2.233,2.233,0,0,1,4.467,2.233Z" transform="translate(90.99 15.165)"/><path class="b" d="M4.467,2.234A2.233,2.233,0,1,1,2.234,0,2.233,2.233,0,0,1,4.467,2.234Z" transform="translate(0 30.329)"/><path class="b" d="M4.467,2.234A2.233,2.233,0,1,1,2.233,0,2.233,2.233,0,0,1,4.467,2.234Z" transform="translate(15.165 30.329)"/><path class="b" d="M4.467,2.234A2.233,2.233,0,1,1,2.233,0,2.233,2.233,0,0,1,4.467,2.234Z" transform="translate(30.331 30.329)"/><path class="b" d="M4.468,2.234A2.234,2.234,0,1,1,2.234,0,2.234,2.234,0,0,1,4.468,2.234Z" transform="translate(45.495 30.329)"/><path class="b" d="M4.468,2.234A2.234,2.234,0,1,1,2.234,0,2.234,2.234,0,0,1,4.468,2.234Z" transform="translate(60.66 30.329)"/><path class="b" d="M4.468,2.234A2.234,2.234,0,1,1,2.234,0,2.234,2.234,0,0,1,4.468,2.234Z" transform="translate(75.825 30.329)"/><path class="b" d="M4.467,2.234A2.233,2.233,0,1,1,2.234,0,2.233,2.233,0,0,1,4.467,2.234Z" transform="translate(90.99 30.329)"/><path class="b" d="M4.467,2.234A2.233,2.233,0,1,1,2.234,0,2.234,2.234,0,0,1,4.467,2.234Z" transform="translate(0 45.495)"/><path class="b" d="M4.467,2.234A2.233,2.233,0,1,1,2.233,0,2.234,2.234,0,0,1,4.467,2.234Z" transform="translate(15.165 45.495)"/><path class="b" d="M4.467,2.234A2.233,2.233,0,1,1,2.233,0,2.234,2.234,0,0,1,4.467,2.234Z" transform="translate(30.331 45.495)"/><path class="b" d="M4.468,2.234A2.234,2.234,0,1,1,2.234,0,2.234,2.234,0,0,1,4.468,2.234Z" transform="translate(45.495 45.495)"/><path class="b" d="M4.468,2.234A2.234,2.234,0,1,1,2.234,0,2.234,2.234,0,0,1,4.468,2.234Z" transform="translate(60.66 45.495)"/><path class="b" d="M4.468,2.234A2.234,2.234,0,1,1,2.234,0,2.234,2.234,0,0,1,4.468,2.234Z" transform="translate(75.825 45.495)"/><path class="b" d="M4.467,2.234A2.233,2.233,0,1,1,2.234,0,2.234,2.234,0,0,1,4.467,2.234Z" transform="translate(90.99 45.495)"/><path class="b" d="M4.467,2.234A2.233,2.233,0,1,1,2.234,0,2.234,2.234,0,0,1,4.467,2.234Z" transform="translate(0 60.66)"/><path class="b" d="M4.467,2.234A2.233,2.233,0,1,1,2.233,0,2.234,2.234,0,0,1,4.467,2.234Z" transform="translate(15.165 60.66)"/><path class="b" d="M4.467,2.234A2.233,2.233,0,1,1,2.233,0,2.234,2.234,0,0,1,4.467,2.234Z" transform="translate(30.331 60.66)"/><path class="b" d="M4.468,2.234A2.234,2.234,0,1,1,2.234,0,2.235,2.235,0,0,1,4.468,2.234Z" transform="translate(45.495 60.66)"/><path class="b" d="M4.468,2.234A2.234,2.234,0,1,1,2.234,0,2.235,2.235,0,0,1,4.468,2.234Z" transform="translate(60.66 60.66)"/><path class="b" d="M4.468,2.234A2.234,2.234,0,1,1,2.234,0,2.235,2.235,0,0,1,4.468,2.234Z" transform="translate(75.825 60.66)"/><path class="b" d="M4.467,2.234A2.233,2.233,0,1,1,2.234,0,2.234,2.234,0,0,1,4.467,2.234Z" transform="translate(90.99 60.66)"/></g></g></svg>