<svg xmlns="http://www.w3.org/2000/svg" xmlns:xlink="http://www.w3.org/1999/xlink" width="94" height="72" viewBox="0 0 94 72"><defs><style>.a,.d{fill:none;stroke:#262389;}.b{opacity:0.1;}.c{clip-path:url(#a);}.d{stroke-linecap:round;stroke-linejoin:round;stroke-width:2px;}.e{fill:#262389;opacity:0.103;}</style><clipPath id="a"><circle class="a" cx="32" cy="32" r="32"/></clipPath></defs><g transform="translate(-682 -120)"><g class="b" transform="translate(351.732 -31.942)"><g class="c" transform="translate(330.268 159.942)"><g transform="translate(-82.676 -13.942)"><line class="d" y1="91.884" x2="91.884"/><line class="d" y1="91.884" x2="91.884" transform="translate(5.287)"/><line class="d" y1="91.884" x2="91.884" transform="translate(10.575)"/><line class="d" y1="91.884" x2="91.884" transform="translate(15.862)"/><line class="d" y1="91.884" x2="91.884" transform="translate(21.149)"/><line class="d" y1="91.884" x2="91.884" transform="translate(26.436)"/><line class="d" y1="91.884" x2="91.884" transform="translate(31.724)"/><line class="d" y1="91.884" x2="91.884" transform="translate(37.011)"/><line class="d" y1="91.884" x2="91.884" transform="translate(42.298)"/><line class="d" y1="91.884" x2="91.884" transform="translate(47.585)"/><line class="d" y1="91.884" x2="91.884" transform="translate(52.873)"/><line class="d" y1="91.884" x2="91.884" transform="translate(58.16)"/><line class="d" y1="91.884" x2="91.884" transform="translate(63.447)"/><line class="d" y1="91.884" x2="91.884" transform="translate(68.735)"/><line class="d" y1="91.884" x2="91.884" transform="translate(74.022)"/><line class="d" y1="91.884" x2="91.884" transform="translate(79.309)"/><line class="d" y1="91.884" x2="91.884" transform="translate(84.596)"/><line class="d" y1="91.884" x2="91.884" transform="translate(89.884)"/><line class="d" y1="91.884" x2="91.884" transform="translate(95.171)"/><line class="d" y1="91.884" x2="91.884" transform="translate(100.458)"/><line class="d" y1="91.884" x2="91.884" transform="translate(105.745)"/><line class="d" y1="91.884" x2="91.884" transform="translate(111.033)"/><line class="d" y1="91.884" x2="91.884" transform="translate(116.32)"/><line class="d" y1="91.884" x2="91.884" transform="translate(121.607)"/><line class="d" y1="91.884" x2="91.884" transform="translate(126.894)"/><line class="d" y1="91.884" x2="91.884" transform="translate(132.182)"/><line class="d" y1="91.884" x2="91.884" transform="translate(137.469)"/></g></g></g><circle class="e" cx="32" cy="32" r="32" transform="translate(712 120)"/></g></svg>