<svg xmlns="http://www.w3.org/2000/svg" xmlns:xlink="http://www.w3.org/1999/xlink" width="56" height="56" viewBox="0 0 56 56"><defs><style>.a{fill:url(#a);}.b{fill:url(#b);}</style><linearGradient id="a" x1="0.228" y1="0.925" x2="0.778" y2="0.085" gradientUnits="objectBoundingBox"><stop offset="0" stop-color="#262389"/><stop offset="1" stop-color="#ff004c"/></linearGradient><linearGradient id="b" x1="3.167" y1="3.181" x2="-0.258" y2="-0.275" xlink:href="#a"/></defs><g transform="translate(-176 -614)"><path class="a" d="M-296,1092a27.827,27.827,0,0,1-10.9-2.2,27.908,27.908,0,0,1-8.9-6,27.907,27.907,0,0,1-6-8.9A27.824,27.824,0,0,1-324,1064a27.825,27.825,0,0,1,2.2-10.9,27.907,27.907,0,0,1,6-8.9,27.908,27.908,0,0,1,8.9-6A27.827,27.827,0,0,1-296,1036a27.827,27.827,0,0,1,10.9,2.2,27.908,27.908,0,0,1,8.9,6,27.908,27.908,0,0,1,6,8.9A27.825,27.825,0,0,1-268,1064a27.824,27.824,0,0,1-2.2,10.9,27.905,27.905,0,0,1-6,8.9,27.908,27.908,0,0,1-8.9,6A27.827,27.827,0,0,1-296,1092Zm0-54a25.835,25.835,0,0,0-10.12,2.043,25.915,25.915,0,0,0-8.264,5.572,25.913,25.913,0,0,0-5.572,8.264A25.838,25.838,0,0,0-322,1064a25.838,25.838,0,0,0,2.043,10.12,25.912,25.912,0,0,0,5.572,8.264,25.911,25.911,0,0,0,8.264,5.572A25.835,25.835,0,0,0-296,1090a25.836,25.836,0,0,0,10.12-2.043,25.911,25.911,0,0,0,8.264-5.572,25.911,25.911,0,0,0,5.572-8.264A25.838,25.838,0,0,0-270,1064a25.838,25.838,0,0,0-2.043-10.12,25.914,25.914,0,0,0-5.572-8.264,25.915,25.915,0,0,0-8.264-5.572A25.836,25.836,0,0,0-296,1038Z" transform="translate(500 -422)"/><path class="b" d="M8,0l8,14H0Z" transform="translate(214 634) rotate(90)"/></g></svg>