<svg xmlns="http://www.w3.org/2000/svg" width="88.998" height="89" viewBox="0 0 88.998 89"><defs><style>.a{opacity:0.199;}.b{fill:none;stroke:#262389;stroke-miterlimit:10;}</style></defs><g class="a" transform="translate(-31.539 -413.333)"><path class="b" d="M38.074,416.851a3.018,3.018,0,1,1-3.018-3.018A3.017,3.017,0,0,1,38.074,416.851Z"/><path class="b" d="M51.7,416.851a3.018,3.018,0,1,1-3.018-3.018A3.018,3.018,0,0,1,51.7,416.851Z" transform="translate(6.866)"/><path class="b" d="M65.325,416.851a3.018,3.018,0,1,1-3.018-3.018A3.018,3.018,0,0,1,65.325,416.851Z" transform="translate(13.732)"/><path class="b" d="M78.95,416.851a3.018,3.018,0,1,1-3.018-3.018A3.018,3.018,0,0,1,78.95,416.851Z" transform="translate(20.598)"/><path class="b" d="M92.573,416.851a3.018,3.018,0,1,1-3.017-3.018A3.017,3.017,0,0,1,92.573,416.851Z" transform="translate(27.464)"/><path class="b" d="M38.074,430.475a3.018,3.018,0,1,1-3.018-3.017A3.017,3.017,0,0,1,38.074,430.475Z" transform="translate(0 6.866)"/><path class="b" d="M51.7,430.475a3.018,3.018,0,1,1-3.018-3.017A3.018,3.018,0,0,1,51.7,430.475Z" transform="translate(6.866 6.866)"/><path class="b" d="M65.325,430.475a3.018,3.018,0,1,1-3.018-3.017A3.018,3.018,0,0,1,65.325,430.475Z" transform="translate(13.732 6.866)"/><path class="b" d="M78.95,430.475a3.018,3.018,0,1,1-3.018-3.017A3.018,3.018,0,0,1,78.95,430.475Z" transform="translate(20.598 6.866)"/><path class="b" d="M92.573,430.475a3.018,3.018,0,1,1-3.017-3.017A3.017,3.017,0,0,1,92.573,430.475Z" transform="translate(27.464 6.866)"/><path class="b" d="M38.074,444.1a3.018,3.018,0,1,1-3.018-3.018A3.017,3.017,0,0,1,38.074,444.1Z" transform="translate(0 13.732)"/><path class="b" d="M51.7,444.1a3.018,3.018,0,1,1-3.018-3.018A3.018,3.018,0,0,1,51.7,444.1Z" transform="translate(6.866 13.732)"/><path class="b" d="M65.325,444.1a3.018,3.018,0,1,1-3.018-3.018A3.018,3.018,0,0,1,65.325,444.1Z" transform="translate(13.732 13.732)"/><path class="b" d="M78.95,444.1a3.018,3.018,0,1,1-3.018-3.018A3.018,3.018,0,0,1,78.95,444.1Z" transform="translate(20.598 13.732)"/><path class="b" d="M92.573,444.1a3.018,3.018,0,1,1-3.017-3.018A3.017,3.017,0,0,1,92.573,444.1Z" transform="translate(27.464 13.732)"/><path class="b" d="M38.074,457.725a3.018,3.018,0,1,1-3.018-3.018A3.018,3.018,0,0,1,38.074,457.725Z" transform="translate(0 20.598)"/><path class="b" d="M51.7,457.725a3.018,3.018,0,1,1-3.018-3.018A3.019,3.019,0,0,1,51.7,457.725Z" transform="translate(6.866 20.598)"/><path class="b" d="M65.325,457.725a3.018,3.018,0,1,1-3.018-3.018A3.019,3.019,0,0,1,65.325,457.725Z" transform="translate(13.732 20.598)"/><path class="b" d="M78.95,457.725a3.018,3.018,0,1,1-3.018-3.018A3.019,3.019,0,0,1,78.95,457.725Z" transform="translate(20.598 20.598)"/><path class="b" d="M92.573,457.725a3.018,3.018,0,1,1-3.017-3.018A3.018,3.018,0,0,1,92.573,457.725Z" transform="translate(27.464 20.598)"/><path class="b" d="M38.074,471.35a3.018,3.018,0,1,1-3.018-3.018A3.018,3.018,0,0,1,38.074,471.35Z" transform="translate(0 27.464)"/><path class="b" d="M51.7,471.35a3.018,3.018,0,1,1-3.018-3.018A3.019,3.019,0,0,1,51.7,471.35Z" transform="translate(6.866 27.464)"/><path class="b" d="M65.325,471.35a3.018,3.018,0,1,1-3.018-3.018A3.019,3.019,0,0,1,65.325,471.35Z" transform="translate(13.732 27.464)"/><path class="b" d="M78.95,471.35a3.018,3.018,0,1,1-3.018-3.018A3.019,3.019,0,0,1,78.95,471.35Z" transform="translate(20.598 27.464)"/><path class="b" d="M92.573,471.35a3.018,3.018,0,1,1-3.017-3.018A3.018,3.018,0,0,1,92.573,471.35Z" transform="translate(27.464 27.464)"/></g></svg>