<svg xmlns="http://www.w3.org/2000/svg" xmlns:xlink="http://www.w3.org/1999/xlink" width="544.051" height="402.981" viewBox="0 0 544.051 402.981">
  <defs>
    <linearGradient id="linear-gradient" y1="0.5" x2="1" y2="0.5" gradientUnits="objectBoundingBox">
      <stop offset="0" stop-color="#e39a65"/>
      <stop offset="1" stop-color="#e95f8d"/>
    </linearGradient>
    <radialGradient id="radial-gradient" cx="0.193" cy="-0.023" r="1.117" gradientTransform="translate(-0.04) scale(1.08 1)" gradientUnits="objectBoundingBox">
      <stop offset="0" stop-color="#e39a65"/>
      <stop offset="0.474" stop-color="#a92ffb"/>
      <stop offset="0.595" stop-color="#881bfa"/>
      <stop offset="0.742" stop-color="#6507fa"/>
      <stop offset="0.802" stop-color="#0d0c6f"/>
    </radialGradient>
    <radialGradient id="radial-gradient-2" cx="0.01" cy="0.384" r="1.712" gradientTransform="translate(0.213) scale(0.573 1)" gradientUnits="objectBoundingBox">
      <stop offset="0" stop-color="#e39a65"/>
      <stop offset="0.474" stop-color="#a92ffb"/>
      <stop offset="0.568" stop-color="#881bfa"/>
      <stop offset="0.683" stop-color="#6507fa"/>
      <stop offset="0.738" stop-color="#0d0c6f"/>
    </radialGradient>
    <radialGradient id="radial-gradient-3" cx="0.101" cy="0.074" r="1.524" gradientTransform="translate(0.211) scale(0.577 1)" gradientUnits="objectBoundingBox">
      <stop offset="0" stop-color="#e39a65"/>
      <stop offset="0.474" stop-color="#a92ffb"/>
      <stop offset="0.588" stop-color="#881bfa"/>
      <stop offset="0.726" stop-color="#6507fa"/>
      <stop offset="1" stop-color="#3919bb"/>
    </radialGradient>
    <radialGradient id="radial-gradient-4" cx="-0.116" cy="0.206" r="1.121" gradientTransform="translate(-0.038) scale(1.077 1)" xlink:href="#radial-gradient-3"/>
    <linearGradient id="linear-gradient-5" y1="0.5" x2="1" y2="0.5" gradientUnits="objectBoundingBox">
      <stop offset="0" stop-color="#3919bb"/>
      <stop offset="1" stop-color="#6507fa"/>
    </linearGradient>
    <radialGradient id="radial-gradient-5" cx="-1.084" cy="-0.321" r="2.658" gradientTransform="translate(-0.038) scale(1.077 1)" xlink:href="#radial-gradient-3"/>
    <radialGradient id="radial-gradient-6" cx="-0.082" cy="0.242" r="2.243" gradientTransform="translate(-0.159) scale(1.318 1)" gradientUnits="objectBoundingBox">
      <stop offset="0" stop-color="#e39a65"/>
      <stop offset="0.153" stop-color="#a92ffb"/>
      <stop offset="0.409" stop-color="#3919bb"/>
      <stop offset="0.931" stop-color="#3919bb"/>
    </radialGradient>
    <linearGradient id="linear-gradient-7" y1="0.5" x2="1" y2="0.5" gradientUnits="objectBoundingBox">
      <stop offset="0" stop-color="#e39a65"/>
      <stop offset="0.252" stop-color="#a92ffb"/>
      <stop offset="0.556" stop-color="#3919bb"/>
    </linearGradient>
    <linearGradient id="linear-gradient-8" y1="0.5" x2="1" y2="0.5" gradientUnits="objectBoundingBox">
      <stop offset="0" stop-color="#4f1fec"/>
      <stop offset="1" stop-color="#a92ffb"/>
    </linearGradient>
    <linearGradient id="linear-gradient-10" y1="0.5" x2="1.261" y2="0.5" gradientUnits="objectBoundingBox">
      <stop offset="0" stop-color="#131060"/>
      <stop offset="0.186" stop-color="#140f62"/>
      <stop offset="0.282" stop-color="#190f6a"/>
      <stop offset="0.358" stop-color="#220f77"/>
      <stop offset="0.424" stop-color="#2e0f8a"/>
      <stop offset="0.482" stop-color="#3d0ea3"/>
      <stop offset="0.536" stop-color="#510ec1"/>
      <stop offset="0.585" stop-color="#670de5"/>
      <stop offset="0.607" stop-color="#740df8"/>
      <stop offset="0.618" stop-color="#7a14ef"/>
      <stop offset="0.683" stop-color="#9b3bc2"/>
      <stop offset="0.748" stop-color="#b75c9d"/>
      <stop offset="0.812" stop-color="#cc7680"/>
      <stop offset="0.876" stop-color="#db886b"/>
      <stop offset="0.939" stop-color="#e4935f"/>
      <stop offset="1" stop-color="#e8975b"/>
    </linearGradient>
    <radialGradient id="radial-gradient-7" cx="-0.135" cy="0.092" r="3.209" gradientTransform="translate(0.211) scale(0.577 1)" gradientUnits="objectBoundingBox">
      <stop offset="0" stop-color="#e39a65"/>
      <stop offset="0.252" stop-color="#a92ffb"/>
      <stop offset="0.736" stop-color="#3919bb"/>
    </radialGradient>
    <linearGradient id="linear-gradient-11" x1="-0.089" y1="0.5" x2="1.209" y2="0.5" xlink:href="#linear-gradient-10"/>
  </defs>
  <g id="Group_16164" data-name="Group 16164" transform="translate(-75.185 -37.547)">
    <path id="Path_15844" data-name="Path 15844" d="M501.291,321.122a8.641,8.641,0,0,1-4.32-1.155l-14.561-8.407a2.7,2.7,0,0,1,0-4.671l14.561-8.407a8.663,8.663,0,0,1,8.638,0l14.563,8.407a2.7,2.7,0,0,1,0,4.671l-14.561,8.407A8.633,8.633,0,0,1,501.291,321.122Zm0-21.486a6.333,6.333,0,0,0-3.166.844l-14.561,8.409a.388.388,0,0,0,0,.673l14.563,8.407h0a6.349,6.349,0,0,0,6.329,0l14.563-8.407a.389.389,0,0,0,0-.673l-14.564-8.409A6.331,6.331,0,0,0,501.291,299.636Z" transform="translate(97.715 62.543)" opacity="0.3" fill="url(#linear-gradient)"/>
    <path id="Path_15845" data-name="Path 15845" d="M470.391,285.677a14.016,14.016,0,0,1-7.016-1.875l-25.061-14.47a3.806,3.806,0,0,1,0-6.6l25.059-14.468a14.064,14.064,0,0,1,14.034,0l25.062,14.468a3.809,3.809,0,0,1,0,6.6L477.409,283.8A14.036,14.036,0,0,1,470.391,285.677Zm-5.863-3.874a11.77,11.77,0,0,0,11.726,0l25.061-14.468a1.5,1.5,0,0,0,0-2.6l-25.062-14.468a11.764,11.764,0,0,0-11.726,0l-25.061,14.468a1.5,1.5,0,0,0,0,2.6Z" transform="translate(86.965 50.28)" opacity="0.3" fill="url(#linear-gradient)"/>
    <path id="Path_15846" data-name="Path 15846" d="M109.169,304.029a14.022,14.022,0,0,1-7.018-1.874L77.09,287.686a3.809,3.809,0,0,1,0-6.6L102.15,266.62a14.061,14.061,0,0,1,14.034,0l25.061,14.47a3.806,3.806,0,0,1,0,6.6l-25.059,14.47A14.027,14.027,0,0,1,109.169,304.029Zm0-36.974a11.733,11.733,0,0,0-5.864,1.565l-25.061,14.47a1.5,1.5,0,0,0,0,2.6l25.061,14.468h0a11.764,11.764,0,0,0,11.726,0l25.061-14.468a1.5,1.5,0,0,0,0-2.6l-25.062-14.471A11.732,11.732,0,0,0,109.168,267.054Z" transform="translate(0 54.698)" opacity="0.3" fill="url(#linear-gradient)"/>
    <g id="Group_16157" data-name="Group 16157" transform="translate(154.313 71.937)">
      <path id="Path_15847" data-name="Path 15847" d="M342.234,381.663,163.032,278.2c-2.612-1.509-2.284-4.143.732-5.884l115.013-66.4c3.016-1.741,7.579-1.931,10.19-.422l179.2,103.463c2.612,1.508,2.284,4.142-.732,5.884l-115.014,66.4C349.409,382.98,344.846,383.17,342.234,381.663Z" transform="translate(-133.588 -31.749)" fill="#020230" opacity="0.6"/>
      <path id="Path_15848" data-name="Path 15848" d="M351.711,403.395a11.456,11.456,0,0,1-5.639-1.321h0L141.55,283.992a4.573,4.573,0,0,1-2.591-3.916c0-1.793,1.248-3.542,3.424-4.8L281.8,193.6c3.824-2.209,9.442-2.421,12.792-.485L499.113,311.193a4.568,4.568,0,0,1,2.591,3.915c0,1.793-1.248,3.541-3.426,4.8L358.864,401.587A14.63,14.63,0,0,1,351.711,403.395ZM288.98,194.107a12.445,12.445,0,0,0-6.019,1.485L143.546,277.273c-1.429.825-2.277,1.871-2.277,2.8a2.441,2.441,0,0,0,1.434,1.917L347.227,400.073h0c2.611,1.51,7.409,1.289,10.473-.481L497.117,317.91c1.429-.825,2.277-1.871,2.277-2.8a2.44,2.44,0,0,0-1.434-1.916L293.438,195.109A9.144,9.144,0,0,0,288.98,194.107Z" transform="translate(-138.959 -34.803)" opacity="0.35" fill="url(#linear-gradient)"/>
      <path id="Path_15849" data-name="Path 15849" d="M490.855,169.012,312.358,65.956a4.623,4.623,0,0,0-3.643-.524h0l-.016,0-3.305,1.151,1.164.275a5.785,5.785,0,0,0-1.091,2.041L265.1,199.97a7.907,7.907,0,0,0,3.272,8.819l178.5,103.054a5.234,5.234,0,0,0,1.313.537l-.442.963,3.156-1.109-.007,0a5.049,5.049,0,0,0,2.872-3.339l40.365-131.062A7.905,7.905,0,0,0,490.855,169.012Z" transform="translate(-108.666 -65.264)" fill="url(#radial-gradient)"/>
      <path id="Path_15850" data-name="Path 15850" d="M465.39,287.875l.063.076L289.145,186.159c-2.593-1.5-7.124-1.31-10.118.419L165.113,252.346l-3.8-1.45,1.067,5.329,0,0a3.19,3.19,0,0,0,1.71,2.133L342.035,361.088c2.593,1.5,7.123,1.309,10.118-.419l114.2-65.935a4.565,4.565,0,0,0,2.419-2.82l.007.007,1.089-5.186Z" transform="translate(-133.577 -36.402)" fill="url(#radial-gradient-2)"/>
      <path id="Path_15851" data-name="Path 15851" d="M342.234,357.551l-179.2-103.463c-2.612-1.508-2.284-4.142.732-5.882l115.013-66.4c3.016-1.741,7.579-1.931,10.19-.422l179.2,103.463c2.612,1.507,2.284,4.142-.732,5.882l-115.014,66.4C349.409,358.87,344.846,359.06,342.234,357.551Z" transform="translate(-133.588 -37.554)" fill="url(#radial-gradient-3)"/>
      <path id="Path_15852" data-name="Path 15852" d="M467.432,275.657l-115.014,66.4c-3.015,1.742-7.579,1.931-10.19.423L163.026,239.02a3.343,3.343,0,0,1-1.629-1.859c-.346,1.2.16,2.406,1.629,3.253l179.2,103.464c2.612,1.507,7.175,1.318,10.19-.423l115.014-66.4c1.989-1.149,2.782-2.68,2.361-4.025A4.744,4.744,0,0,1,467.432,275.657Z" transform="translate(-133.582 -23.879)" fill="#fff"/>
      <g id="Group_16153" data-name="Group 16153" transform="translate(108.544 166.9)" opacity="0.4">
        <path id="Path_15853" data-name="Path 15853" d="M232.818,227.993l-6.05-3.493c-.485-.28-.424-.771.136-1.094l7.141-4.123a2.108,2.108,0,0,1,1.9-.078l6.05,3.493c.486.28.424.77-.136,1.094l-7.141,4.123A2.108,2.108,0,0,1,232.818,227.993Z" transform="translate(-226.441 -195.148)" fill="#06033e"/>
        <path id="Path_15854" data-name="Path 15854" d="M240.35,232.341l-6.051-3.494c-.485-.28-.424-.769.136-1.093l7.142-4.123a2.106,2.106,0,0,1,1.895-.079l6.05,3.494c.486.28.426.769-.135,1.093l-7.142,4.123A2.1,2.1,0,0,1,240.35,232.341Z" transform="translate(-224.628 -194.102)" fill="#06033e"/>
        <path id="Path_15855" data-name="Path 15855" d="M247.88,236.688l-6.05-3.493c-.486-.28-.426-.771.135-1.094l7.142-4.123A2.105,2.105,0,0,1,251,227.9l6.051,3.493c.485.28.424.771-.136,1.094l-7.142,4.123A2.105,2.105,0,0,1,247.88,236.688Z" transform="translate(-222.815 -193.055)" fill="#06033e"/>
        <path id="Path_15856" data-name="Path 15856" d="M258.295,232.97l-6.051-3.493c-.485-.28-.424-.77.136-1.094l6-3.462a2.105,2.105,0,0,1,1.895-.078l6.05,3.493c.486.28.426.771-.135,1.094l-6,3.462A2.105,2.105,0,0,1,258.295,232.97Z" transform="translate(-220.308 -193.791)" fill="#06033e"/>
        <path id="Path_15857" data-name="Path 15857" d="M265.825,237.316l-6.05-3.493c-.486-.28-.426-.771.135-1.094l6-3.46a2.105,2.105,0,0,1,1.895-.078l6.05,3.493c.486.28.426.771-.135,1.094l-6,3.46A2.1,2.1,0,0,1,265.825,237.316Z" transform="translate(-218.495 -192.744)" fill="#06033e"/>
        <path id="Path_15858" data-name="Path 15858" d="M273.355,241.665l-6.05-3.493c-.486-.28-.424-.771.136-1.094l5.994-3.46a2.108,2.108,0,0,1,1.9-.079l6.05,3.494c.485.279.424.769-.136,1.093l-5.994,3.462A2.108,2.108,0,0,1,273.355,241.665Z" transform="translate(-216.682 -191.698)" fill="#06033e"/>
        <path id="Path_15859" data-name="Path 15859" d="M280.884,246.013l-6.05-3.493c-.485-.28-.424-.771.137-1.094l5.994-3.462a2.108,2.108,0,0,1,1.9-.078l6.05,3.493c.486.28.424.771-.136,1.094l-5.994,3.46A2.108,2.108,0,0,1,280.884,246.013Z" transform="translate(-214.869 -190.651)" fill="#06033e"/>
        <path id="Path_15860" data-name="Path 15860" d="M288.416,250.36l-6.05-3.493c-.486-.28-.426-.771.135-1.094l6-3.46a2.1,2.1,0,0,1,1.895-.078l6.05,3.493c.486.28.426.77-.135,1.094l-6,3.46A2.105,2.105,0,0,1,288.416,250.36Z" transform="translate(-213.056 -189.604)" fill="#06033e"/>
        <path id="Path_15861" data-name="Path 15861" d="M295.946,254.708l-6.05-3.493c-.486-.28-.426-.771.135-1.094l6-3.462a2.105,2.105,0,0,1,1.895-.078l6.05,3.493c.486.28.426.771-.135,1.094l-6,3.462A2.105,2.105,0,0,1,295.946,254.708Z" transform="translate(-211.243 -188.557)" fill="#06033e"/>
        <path id="Path_15862" data-name="Path 15862" d="M303.475,259.056l-6.05-3.494c-.485-.28-.424-.771.137-1.094l5.994-3.46a2.108,2.108,0,0,1,1.9-.078l6.05,3.493c.485.28.424.771-.137,1.094l-5.994,3.46A2.108,2.108,0,0,1,303.475,259.056Z" transform="translate(-209.43 -187.511)" fill="#06033e"/>
        <path id="Path_15863" data-name="Path 15863" d="M311.005,263.4l-6.05-3.493c-.485-.28-.424-.771.137-1.094l5.994-3.461a2.108,2.108,0,0,1,1.9-.079l6.05,3.494c.485.28.424.769-.136,1.093l-5.994,3.462A2.108,2.108,0,0,1,311.005,263.4Z" transform="translate(-207.617 -186.464)" fill="#06033e"/>
        <path id="Path_15864" data-name="Path 15864" d="M318.537,267.751l-6.051-3.493c-.485-.282-.424-.771.136-1.094l6-3.462a2.105,2.105,0,0,1,1.895-.078l6.05,3.493c.486.28.426.771-.135,1.094l-6,3.462A2.105,2.105,0,0,1,318.537,267.751Z" transform="translate(-205.805 -185.417)" fill="#06033e"/>
        <path id="Path_15865" data-name="Path 15865" d="M326.067,272.1l-6.05-3.493c-.486-.28-.426-.771.135-1.094l6-3.46a2.106,2.106,0,0,1,1.895-.079l6.051,3.494c.485.28.424.77-.137,1.094l-6,3.46A2.105,2.105,0,0,1,326.067,272.1Z" transform="translate(-203.992 -184.371)" fill="#06033e"/>
        <path id="Path_15866" data-name="Path 15866" d="M269.39,230.912l-6.05-3.494c-.486-.28-.426-.771.135-1.094l6-3.46a2.105,2.105,0,0,1,1.895-.078l6.051,3.493c.485.28.424.771-.136,1.094l-6,3.46A2.106,2.106,0,0,1,269.39,230.912Z" transform="translate(-217.637 -194.286)" fill="#06033e"/>
        <path id="Path_15867" data-name="Path 15867" d="M261.746,226.5l-6.05-3.493c-.485-.28-.424-.771.136-1.094l5.994-3.46a2.1,2.1,0,0,1,1.9-.079l6.05,3.493c.485.282.424.771-.136,1.094l-5.994,3.462A2.108,2.108,0,0,1,261.746,226.5Z" transform="translate(-219.477 -195.349)" fill="#06033e"/>
        <path id="Path_15868" data-name="Path 15868" d="M255.446,222.861l-13.03-7.523c-.485-.28-.424-.77.136-1.094l5.994-3.46a2.108,2.108,0,0,1,1.9-.079l13.03,7.524c.485.28.424.77-.136,1.094l-5.994,3.46A2.108,2.108,0,0,1,255.446,222.861Z" transform="translate(-222.674 -197.195)" fill="#06033e"/>
        <path id="Path_15869" data-name="Path 15869" d="M260.32,217.212l-10.575-6.106c-.485-.28-.424-.771.136-1.094l6-3.46a2.106,2.106,0,0,1,1.895-.079l10.575,6.106c.485.28.424.77-.137,1.094l-5.994,3.46A2.108,2.108,0,0,1,260.32,217.212Z" transform="translate(-220.909 -198.214)" fill="#06033e"/>
        <path id="Path_15870" data-name="Path 15870" d="M276.919,235.259l-6.05-3.493c-.485-.28-.424-.771.136-1.094l5.994-3.46a2.108,2.108,0,0,1,1.9-.079l6.05,3.494c.485.28.424.771-.137,1.093l-5.994,3.462A2.108,2.108,0,0,1,276.919,235.259Z" transform="translate(-215.824 -193.24)" fill="#06033e"/>
        <path id="Path_15871" data-name="Path 15871" d="M284.451,239.607l-6.051-3.493c-.485-.282-.424-.77.136-1.094l5.994-3.462a2.108,2.108,0,0,1,1.9-.078l6.05,3.493c.486.28.426.771-.136,1.094l-5.994,3.462A2.105,2.105,0,0,1,284.451,239.607Z" transform="translate(-214.011 -192.193)" fill="#06033e"/>
        <path id="Path_15872" data-name="Path 15872" d="M291.981,243.953l-6.05-3.493c-.486-.28-.426-.771.135-1.094l6-3.46a2.11,2.11,0,0,1,1.895-.079l6.05,3.494c.486.28.426.771-.135,1.094l-6,3.46A2.1,2.1,0,0,1,291.981,243.953Z" transform="translate(-212.198 -191.146)" fill="#06033e"/>
        <path id="Path_15873" data-name="Path 15873" d="M299.511,248.3l-6.05-3.493c-.486-.28-.426-.771.136-1.094l5.994-3.462a2.105,2.105,0,0,1,1.895-.078l6.051,3.493c.485.28.424.771-.137,1.094l-5.994,3.462A2.108,2.108,0,0,1,299.511,248.3Z" transform="translate(-210.385 -190.1)" fill="#06033e"/>
        <path id="Path_15874" data-name="Path 15874" d="M307.04,252.65l-6.05-3.494c-.485-.28-.424-.769.136-1.094l5.994-3.46a2.108,2.108,0,0,1,1.9-.078l6.05,3.493c.485.28.424.771-.136,1.094l-5.994,3.46A2.108,2.108,0,0,1,307.04,252.65Z" transform="translate(-208.572 -189.053)" fill="#06033e"/>
        <path id="Path_15875" data-name="Path 15875" d="M314.57,257l-6.05-3.493c-.485-.28-.424-.77.136-1.094l5.994-3.46a2.108,2.108,0,0,1,1.9-.079l6.05,3.494c.486.28.426.77-.137,1.094l-5.994,3.461A2.108,2.108,0,0,1,314.57,257Z" transform="translate(-206.759 -188.006)" fill="#06033e"/>
        <path id="Path_15876" data-name="Path 15876" d="M322.1,261.345l-6.05-3.493c-.486-.28-.426-.77.135-1.094l6-3.462a2.105,2.105,0,0,1,1.895-.078l6.05,3.493c.486.28.426.771-.135,1.094l-6,3.46A2.1,2.1,0,0,1,322.1,261.345Z" transform="translate(-204.946 -186.96)" fill="#06033e"/>
        <path id="Path_15877" data-name="Path 15877" d="M329.632,265.692l-6.05-3.493c-.486-.28-.426-.771.136-1.094l5.994-3.46a2.1,2.1,0,0,1,1.895-.078l6.051,3.493c.485.28.424.771-.136,1.094l-6,3.46A2.1,2.1,0,0,1,329.632,265.692Z" transform="translate(-203.133 -185.913)" fill="#06033e"/>
        <path id="Path_15878" data-name="Path 15878" d="M337.161,270.04l-6.05-3.493c-.485-.28-.424-.771.136-1.094l5.994-3.46a2.108,2.108,0,0,1,1.9-.079l6.05,3.493c.485.28.424.77-.137,1.094l-5.994,3.462A2.108,2.108,0,0,1,337.161,270.04Z" transform="translate(-201.32 -184.866)" fill="#06033e"/>
        <path id="Path_15879" data-name="Path 15879" d="M351.936,278.57l-13.2-7.621c-.485-.282-.424-.771.137-1.094l5.994-3.462a2.108,2.108,0,0,1,1.9-.078l13.2,7.622c.486.279.424.769-.136,1.093l-5.994,3.462A2.108,2.108,0,0,1,351.936,278.57Z" transform="translate(-199.485 -183.807)" fill="#06033e"/>
        <path id="Path_15880" data-name="Path 15880" d="M366.2,269.875l-11.142-6.433c-.486-.28-.426-.771.136-1.094l5.994-3.46a2.108,2.108,0,0,1,1.9-.078l11.142,6.432c.485.28.424.771-.137,1.094l-6,3.462A2.105,2.105,0,0,1,366.2,269.875Z" transform="translate(-195.556 -185.614)" fill="#06033e"/>
        <path id="Path_15881" data-name="Path 15881" d="M290.106,234.409l-6.05-3.494c-.485-.28-.424-.769.136-1.094l5.994-3.46a2.108,2.108,0,0,1,1.9-.078l6.05,3.493c.485.28.424.771-.137,1.094L292,234.329A2.108,2.108,0,0,1,290.106,234.409Z" transform="translate(-212.649 -193.445)" fill="#06033e"/>
        <path id="Path_15882" data-name="Path 15882" d="M282.39,229.953l-6.05-3.493c-.486-.282-.426-.771.135-1.094l6-3.462a2.105,2.105,0,0,1,1.895-.078l6.05,3.493c.486.28.426.771-.135,1.094l-6,3.46A2.1,2.1,0,0,1,282.39,229.953Z" transform="translate(-214.507 -194.517)" fill="#06033e"/>
        <path id="Path_15883" data-name="Path 15883" d="M274.671,225.5,268.622,222c-.485-.28-.424-.77.136-1.094l5.994-3.462a2.112,2.112,0,0,1,1.9-.078l6.05,3.493c.485.28.424.771-.136,1.094l-5.994,3.462A2.108,2.108,0,0,1,274.671,225.5Z" transform="translate(-216.365 -195.59)" fill="#06033e"/>
        <path id="Path_15884" data-name="Path 15884" d="M266.955,221.041l-6.051-3.493c-.485-.28-.424-.771.137-1.094l6-3.46a2.106,2.106,0,0,1,1.895-.079l6.05,3.494c.486.28.426.771-.135,1.094l-6,3.46A2.105,2.105,0,0,1,266.955,221.041Z" transform="translate(-218.223 -196.663)" fill="#06033e"/>
        <path id="Path_15885" data-name="Path 15885" d="M297.638,238.756l-6.051-3.493c-.485-.28-.424-.771.136-1.094l6-3.46a2.106,2.106,0,0,1,1.895-.079l6.05,3.494c.486.28.426.769-.137,1.093l-5.994,3.462A2.105,2.105,0,0,1,297.638,238.756Z" transform="translate(-210.836 -192.398)" fill="#06033e"/>
        <path id="Path_15886" data-name="Path 15886" d="M305.168,243.1l-6.05-3.493c-.486-.28-.426-.771.135-1.094l6-3.462a2.105,2.105,0,0,1,1.895-.078l6.05,3.493c.486.28.426.771-.135,1.094l-6,3.46A2.1,2.1,0,0,1,305.168,243.1Z" transform="translate(-209.023 -191.351)" fill="#06033e"/>
        <path id="Path_15887" data-name="Path 15887" d="M312.7,247.451l-6.05-3.493c-.486-.28-.424-.771.136-1.094l5.994-3.46a2.1,2.1,0,0,1,1.9-.078l6.05,3.493c.485.28.424.771-.137,1.094l-5.994,3.46A2.108,2.108,0,0,1,312.7,247.451Z" transform="translate(-207.21 -190.304)" fill="#06033e"/>
        <path id="Path_15888" data-name="Path 15888" d="M320.228,251.8l-6.05-3.493c-.485-.28-.424-.77.136-1.094l5.994-3.462a2.108,2.108,0,0,1,1.9-.078l6.05,3.493c.485.28.424.771-.137,1.094l-5.994,3.462A2.108,2.108,0,0,1,320.228,251.8Z" transform="translate(-205.397 -189.258)" fill="#06033e"/>
        <path id="Path_15889" data-name="Path 15889" d="M327.759,256.147l-6.051-3.494c-.485-.28-.424-.771.136-1.093l6-3.462a2.105,2.105,0,0,1,1.895-.078l6.05,3.493c.486.28.426.77-.135,1.094l-6,3.46A2.106,2.106,0,0,1,327.759,256.147Z" transform="translate(-203.584 -188.211)" fill="#06033e"/>
        <path id="Path_15890" data-name="Path 15890" d="M335.289,260.494,329.239,257c-.486-.28-.425-.77.135-1.094l6-3.46a2.106,2.106,0,0,1,1.895-.079l6.05,3.494c.486.28.425.769-.135,1.093l-6,3.462A2.105,2.105,0,0,1,335.289,260.494Z" transform="translate(-201.771 -187.164)" fill="#06033e"/>
        <path id="Path_15891" data-name="Path 15891" d="M342.819,264.842l-6.05-3.493c-.486-.282-.424-.771.137-1.094l5.994-3.462a2.108,2.108,0,0,1,1.9-.078l6.05,3.493c.485.28.424.771-.136,1.094l-5.994,3.46A2.1,2.1,0,0,1,342.819,264.842Z" transform="translate(-199.958 -186.118)" fill="#06033e"/>
        <path id="Path_15892" data-name="Path 15892" d="M350.348,269.189,344.3,265.7c-.485-.28-.424-.771.137-1.094l5.994-3.46a2.112,2.112,0,0,1,1.9-.079l6.05,3.494c.486.28.424.771-.136,1.094l-5.994,3.46A2.108,2.108,0,0,1,350.348,269.189Z" transform="translate(-198.146 -185.071)" fill="#06033e"/>
        <path id="Path_15893" data-name="Path 15893" d="M357.88,273.537l-6.05-3.493c-.486-.28-.426-.771.135-1.094l6-3.462a2.105,2.105,0,0,1,1.895-.078l6.05,3.493c.486.28.426.771-.135,1.094l-6,3.462A2.105,2.105,0,0,1,357.88,273.537Z" transform="translate(-196.333 -184.024)" fill="#06033e"/>
        <path id="Path_15894" data-name="Path 15894" d="M286.142,223.655l-6.05-3.493c-.485-.28-.424-.771.136-1.094l5.994-3.46a2.1,2.1,0,0,1,1.9-.079l6.05,3.493c.485.282.424.771-.136,1.094l-5.994,3.462A2.108,2.108,0,0,1,286.142,223.655Z" transform="translate(-213.604 -196.034)" fill="#06033e"/>
        <path id="Path_15895" data-name="Path 15895" d="M278.648,219.329l-6.05-3.493c-.485-.28-.424-.77.137-1.094l5.994-3.46a2.1,2.1,0,0,1,1.9-.079l6.05,3.493c.486.282.424.771-.137,1.094l-5.994,3.462A2.108,2.108,0,0,1,278.648,219.329Z" transform="translate(-215.407 -197.075)" fill="#06033e"/>
        <path id="Path_15896" data-name="Path 15896" d="M271.157,215l-6.051-3.493c-.485-.28-.424-.771.137-1.094l6-3.46a2.1,2.1,0,0,1,1.895-.079l6.05,3.493c.486.282.426.77-.135,1.094l-6,3.462A2.106,2.106,0,0,1,271.157,215Z" transform="translate(-217.211 -198.116)" fill="#06033e"/>
        <path id="Path_15897" data-name="Path 15897" d="M263.664,210.677l-6.05-3.493c-.486-.28-.426-.771.135-1.094l6-3.46a2.1,2.1,0,0,1,1.895-.079l6.05,3.493c.486.282.426.771-.135,1.094l-6,3.462A2.105,2.105,0,0,1,263.664,210.677Z" transform="translate(-219.015 -199.158)" fill="#06033e"/>
        <path id="Path_15898" data-name="Path 15898" d="M271.369,205.779l-6.05-3.493c-.486-.282-.426-.771.135-1.094l1.981-1.144a2.1,2.1,0,0,1,1.9-.079l6.05,3.493c.485.28.424.771-.136,1.094l-1.982,1.144A2.106,2.106,0,0,1,271.369,205.779Z" transform="translate(-217.16 -199.779)" fill="#06033e"/>
        <path id="Path_15899" data-name="Path 15899" d="M281.147,211.424l-6.05-3.493c-.486-.28-.426-.771.135-1.094l1.982-1.144a2.1,2.1,0,0,1,1.9-.078l6.05,3.493c.486.28.424.771-.137,1.094l-1.981,1.144A2.105,2.105,0,0,1,281.147,211.424Z" transform="translate(-214.806 -198.42)" fill="#06033e"/>
        <path id="Path_15900" data-name="Path 15900" d="M288.607,215.732l-6.05-3.493c-.485-.28-.424-.771.137-1.094L284.676,210a2.1,2.1,0,0,1,1.9-.078l6.05,3.493c.485.28.424.771-.137,1.094l-1.981,1.144A2.108,2.108,0,0,1,288.607,215.732Z" transform="translate(-213.01 -197.383)" fill="#06033e"/>
        <path id="Path_15901" data-name="Path 15901" d="M296.07,220.04l-6.05-3.493c-.486-.28-.426-.771.135-1.094l1.983-1.144a2.106,2.106,0,0,1,1.895-.079l6.05,3.494c.486.28.426.771-.135,1.094l-1.983,1.144A2.105,2.105,0,0,1,296.07,220.04Z" transform="translate(-211.213 -196.346)" fill="#06033e"/>
        <path id="Path_15902" data-name="Path 15902" d="M303.53,224.348l-6.05-3.493c-.485-.28-.424-.771.136-1.094l1.982-1.144a2.108,2.108,0,0,1,1.9-.079l6.05,3.494c.485.28.424.771-.136,1.094l-1.982,1.144A2.108,2.108,0,0,1,303.53,224.348Z" transform="translate(-209.417 -195.309)" fill="#06033e"/>
        <path id="Path_15903" data-name="Path 15903" d="M345.188,248.4l-6.05-3.494c-.485-.28-.424-.771.137-1.094l1.981-1.144a2.105,2.105,0,0,1,1.895-.078l6.051,3.493c.485.28.424.771-.136,1.094l-1.982,1.144A2.108,2.108,0,0,1,345.188,248.4Z" transform="translate(-199.388 -189.519)" fill="#06033e"/>
        <path id="Path_15904" data-name="Path 15904" d="M352.65,252.706l-6.05-3.493c-.486-.28-.426-.771.135-1.094l1.983-1.144a2.105,2.105,0,0,1,1.895-.078l6.05,3.493c.486.28.426.771-.135,1.094l-1.983,1.144A2.1,2.1,0,0,1,352.65,252.706Z" transform="translate(-197.592 -188.481)" fill="#06033e"/>
        <path id="Path_15905" data-name="Path 15905" d="M360.11,257.015l-6.05-3.494c-.485-.28-.424-.771.137-1.094l1.982-1.144a2.108,2.108,0,0,1,1.9-.078l6.05,3.493c.485.28.424.77-.137,1.094l-1.981,1.144A2.112,2.112,0,0,1,360.11,257.015Z" transform="translate(-195.795 -187.444)" fill="#06033e"/>
        <path id="Path_15906" data-name="Path 15906" d="M367.573,261.322l-6.05-3.493c-.486-.28-.426-.77.136-1.094l1.981-1.144a2.105,2.105,0,0,1,1.895-.078l6.05,3.493c.486.28.426.771-.135,1.094l-1.981,1.144A2.1,2.1,0,0,1,367.573,261.322Z" transform="translate(-193.999 -186.407)" fill="#06033e"/>
        <path id="Path_15907" data-name="Path 15907" d="M293.671,228l-6.05-3.494c-.485-.28-.424-.769.136-1.094l5.994-3.46a2.108,2.108,0,0,1,1.9-.078l6.05,3.493c.486.28.424.77-.136,1.094l-5.994,3.46A2.108,2.108,0,0,1,293.671,228Z" transform="translate(-211.791 -194.987)" fill="#06033e"/>
        <path id="Path_15908" data-name="Path 15908" d="M301.2,232.35l-6.05-3.493c-.486-.28-.426-.771.135-1.094l6-3.46a2.106,2.106,0,0,1,1.895-.079l6.05,3.494c.486.28.426.77-.135,1.093l-6,3.462A2.105,2.105,0,0,1,301.2,232.35Z" transform="translate(-209.978 -193.94)" fill="#06033e"/>
        <path id="Path_15909" data-name="Path 15909" d="M308.733,236.7l-6.05-3.493c-.486-.28-.426-.771.135-1.094l6-3.462a2.105,2.105,0,0,1,1.895-.078l6.051,3.493c.485.28.424.771-.136,1.094l-6,3.462A2.105,2.105,0,0,1,308.733,236.7Z" transform="translate(-208.165 -192.893)" fill="#06033e"/>
        <path id="Path_15910" data-name="Path 15910" d="M316.262,241.044l-6.05-3.493c-.485-.28-.424-.771.137-1.094l5.994-3.46a2.108,2.108,0,0,1,1.9-.078l6.05,3.493c.485.28.424.771-.136,1.094l-5.994,3.46A2.1,2.1,0,0,1,316.262,241.044Z" transform="translate(-206.352 -191.847)" fill="#06033e"/>
        <path id="Path_15911" data-name="Path 15911" d="M323.792,245.393l-6.05-3.493c-.485-.28-.424-.771.137-1.094l5.994-3.462a2.112,2.112,0,0,1,1.9-.078l6.05,3.493c.486.28.424.77-.137,1.094l-5.994,3.462A2.108,2.108,0,0,1,323.792,245.393Z" transform="translate(-204.539 -190.8)" fill="#06033e"/>
        <path id="Path_15912" data-name="Path 15912" d="M331.324,249.741l-6.05-3.494c-.486-.28-.426-.769.135-1.093l6-3.462a2.105,2.105,0,0,1,1.895-.078l6.05,3.493c.486.28.426.771-.135,1.094l-6,3.46A2.106,2.106,0,0,1,331.324,249.741Z" transform="translate(-202.726 -189.753)" fill="#06033e"/>
        <path id="Path_15913" data-name="Path 15913" d="M338.854,254.088l-6.05-3.493c-.486-.28-.426-.771.135-1.094l6-3.46a2.106,2.106,0,0,1,1.895-.079l6.051,3.494c.485.28.424.769-.136,1.094l-6,3.46A2.105,2.105,0,0,1,338.854,254.088Z" transform="translate(-200.913 -188.707)" fill="#06033e"/>
        <path id="Path_15914" data-name="Path 15914" d="M346.383,258.436l-6.05-3.493c-.485-.28-.424-.771.137-1.094l5.994-3.462a2.108,2.108,0,0,1,1.9-.078l6.05,3.493c.485.28.424.771-.137,1.094l-5.994,3.462A2.108,2.108,0,0,1,346.383,258.436Z" transform="translate(-199.1 -187.66)" fill="#06033e"/>
        <path id="Path_15915" data-name="Path 15915" d="M353.915,262.783l-6.051-3.493c-.485-.28-.424-.771.136-1.094l6-3.46a2.105,2.105,0,0,1,1.895-.078l6.05,3.493c.486.28.426.771-.136,1.094l-5.994,3.46A2.105,2.105,0,0,1,353.915,262.783Z" transform="translate(-197.287 -186.613)" fill="#06033e"/>
        <path id="Path_15916" data-name="Path 15916" d="M252.9,229.857,235.086,219.57c-.486-.28-.426-.77.136-1.094l5.994-3.46a2.1,2.1,0,0,1,1.9-.078l17.817,10.287c.486.28.426.771-.135,1.094l-6,3.46A2.105,2.105,0,0,1,252.9,229.857Z" transform="translate(-224.439 -196.176)" fill="#06033e"/>
        <path id="Path_15917" data-name="Path 15917" d="M345.415,283.269,327.6,272.982c-.486-.282-.424-.771.137-1.094l5.994-3.462a2.108,2.108,0,0,1,1.9-.078l17.817,10.287c.486.28.426.77-.135,1.094l-6,3.46A2.106,2.106,0,0,1,345.415,283.269Z" transform="translate(-202.167 -183.317)" fill="#06033e"/>
        <path id="Path_15918" data-name="Path 15918" d="M313.016,274.3l-6.05-3.494c-.485-.28-.424-.771.137-1.094l7.141-4.123a2.108,2.108,0,0,1,1.9-.078l6.05,3.493c.485.28.424.771-.136,1.094l-7.141,4.123A2.108,2.108,0,0,1,313.016,274.3Z" transform="translate(-207.133 -184.001)" fill="#06033e"/>
        <path id="Path_15919" data-name="Path 15919" d="M259.035,243.129l-9.675-5.586c-.486-.28-.424-.771.136-1.094l7.141-4.123a2.1,2.1,0,0,1,1.9-.078l9.675,5.586c.486.28.424.771-.137,1.094l-7.141,4.123A2.108,2.108,0,0,1,259.035,243.129Z" transform="translate(-221.002 -192.008)" fill="#06033e"/>
        <path id="Path_15920" data-name="Path 15920" d="M306.465,270.512l-9.677-5.586c-.485-.28-.424-.771.136-1.094l7.142-4.123a2.105,2.105,0,0,1,1.895-.078l9.675,5.586c.486.28.426.771-.135,1.094l-7.142,4.123A2.1,2.1,0,0,1,306.465,270.512Z" transform="translate(-209.584 -185.416)" fill="#06033e"/>
        <path id="Path_15921" data-name="Path 15921" d="M269.9,249.4l-9.675-5.587c-.486-.28-.426-.771.135-1.093L267.5,238.6a2.1,2.1,0,0,1,1.895-.079l9.677,5.587c.485.28.424.769-.136,1.094l-7.142,4.122A2.106,2.106,0,0,1,269.9,249.4Z" transform="translate(-218.387 -190.498)" fill="#06033e"/>
        <path id="Path_15922" data-name="Path 15922" d="M269.386,238.514,311.454,262.8a.575.575,0,0,1,0,1.091l-7.282,4.2a2.089,2.089,0,0,1-1.891,0L260.213,243.81Z" transform="translate(-218.31 -190.454)" fill="#06033e"/>
        <path id="Path_15923" data-name="Path 15923" d="M333.767,280.466l6.74,3.891c.4.23.347.632-.112.9l-2.922,1.686a1.727,1.727,0,0,1-1.553.064l-6.738-3.891c-.4-.23-.349-.632.112-.9l2.921-1.686A1.728,1.728,0,0,1,333.767,280.466Z" transform="translate(-201.771 -180.391)" fill="#06033e"/>
        <path id="Path_15924" data-name="Path 15924" d="M326.174,276.082l6.74,3.891c.4.231.349.632-.112.9l-2.921,1.687a1.732,1.732,0,0,1-1.553.065l-6.74-3.891c-.4-.231-.349-.632.112-.9l2.921-1.687A1.731,1.731,0,0,1,326.174,276.082Z" transform="translate(-203.599 -181.447)" fill="#06033e"/>
        <path id="Path_15925" data-name="Path 15925" d="M318.644,271.735l6.74,3.891c.4.23.347.632-.112.9l-2.922,1.686a1.727,1.727,0,0,1-1.553.064l-6.739-3.891c-.4-.23-.349-.632.112-.9l2.921-1.686A1.727,1.727,0,0,1,318.644,271.735Z" transform="translate(-205.412 -182.493)" fill="#06033e"/>
        <path id="Path_15926" data-name="Path 15926" d="M330.333,273.682l6.738,3.891c.4.23.349.632-.112.9l-2.921,1.687a1.727,1.727,0,0,1-1.553.065l-6.74-3.891c-.4-.23-.347-.632.112-.9l2.922-1.686A1.723,1.723,0,0,1,330.333,273.682Z" transform="translate(-202.598 -182.025)" fill="#06033e"/>
      </g>
      <g id="Group_16154" data-name="Group 16154" transform="translate(108.544 166.9)" opacity="0.4">
        <path id="Path_15927" data-name="Path 15927" d="M232.818,227.993l-6.05-3.493c-.485-.28-.424-.771.136-1.094l7.141-4.123a2.108,2.108,0,0,1,1.9-.078l6.05,3.493c.486.28.424.77-.136,1.094l-7.141,4.123A2.108,2.108,0,0,1,232.818,227.993Z" transform="translate(-226.441 -195.148)" fill="#06033e"/>
        <path id="Path_15928" data-name="Path 15928" d="M240.35,232.341l-6.051-3.494c-.485-.28-.424-.769.136-1.093l7.142-4.123a2.106,2.106,0,0,1,1.895-.079l6.05,3.494c.486.28.426.769-.135,1.093l-7.142,4.123A2.1,2.1,0,0,1,240.35,232.341Z" transform="translate(-224.628 -194.102)" fill="#06033e"/>
        <path id="Path_15929" data-name="Path 15929" d="M247.88,236.688l-6.05-3.493c-.486-.28-.426-.771.135-1.094l7.142-4.123A2.105,2.105,0,0,1,251,227.9l6.051,3.493c.485.28.424.771-.136,1.094l-7.142,4.123A2.105,2.105,0,0,1,247.88,236.688Z" transform="translate(-222.815 -193.055)" fill="#06033e"/>
        <path id="Path_15930" data-name="Path 15930" d="M258.295,232.97l-6.051-3.493c-.485-.28-.424-.77.136-1.094l6-3.462a2.105,2.105,0,0,1,1.895-.078l6.05,3.493c.486.28.426.771-.135,1.094l-6,3.462A2.105,2.105,0,0,1,258.295,232.97Z" transform="translate(-220.308 -193.791)" fill="#06033e"/>
        <path id="Path_15931" data-name="Path 15931" d="M265.825,237.316l-6.05-3.493c-.486-.28-.426-.771.135-1.094l6-3.46a2.105,2.105,0,0,1,1.895-.078l6.05,3.493c.486.28.426.771-.135,1.094l-6,3.46A2.1,2.1,0,0,1,265.825,237.316Z" transform="translate(-218.495 -192.744)" fill="#06033e"/>
        <path id="Path_15932" data-name="Path 15932" d="M273.355,241.665l-6.05-3.493c-.486-.28-.424-.771.136-1.094l5.994-3.46a2.108,2.108,0,0,1,1.9-.079l6.05,3.494c.485.279.424.769-.136,1.093l-5.994,3.462A2.108,2.108,0,0,1,273.355,241.665Z" transform="translate(-216.682 -191.698)" fill="#06033e"/>
        <path id="Path_15933" data-name="Path 15933" d="M280.884,246.013l-6.05-3.493c-.485-.28-.424-.771.137-1.094l5.994-3.462a2.108,2.108,0,0,1,1.9-.078l6.05,3.493c.486.28.424.771-.136,1.094l-5.994,3.46A2.108,2.108,0,0,1,280.884,246.013Z" transform="translate(-214.869 -190.651)" fill="#06033e"/>
        <path id="Path_15934" data-name="Path 15934" d="M288.416,250.36l-6.05-3.493c-.486-.28-.426-.771.135-1.094l6-3.46a2.1,2.1,0,0,1,1.895-.078l6.05,3.493c.486.28.426.77-.135,1.094l-6,3.46A2.105,2.105,0,0,1,288.416,250.36Z" transform="translate(-213.056 -189.604)" fill="#06033e"/>
        <path id="Path_15935" data-name="Path 15935" d="M295.946,254.708l-6.05-3.493c-.486-.28-.426-.771.135-1.094l6-3.462a2.105,2.105,0,0,1,1.895-.078l6.05,3.493c.486.28.426.771-.135,1.094l-6,3.462A2.105,2.105,0,0,1,295.946,254.708Z" transform="translate(-211.243 -188.557)" fill="#06033e"/>
        <path id="Path_15936" data-name="Path 15936" d="M303.475,259.056l-6.05-3.494c-.485-.28-.424-.771.137-1.094l5.994-3.46a2.108,2.108,0,0,1,1.9-.078l6.05,3.493c.485.28.424.771-.137,1.094l-5.994,3.46A2.108,2.108,0,0,1,303.475,259.056Z" transform="translate(-209.43 -187.511)" fill="#06033e"/>
        <path id="Path_15937" data-name="Path 15937" d="M311.005,263.4l-6.05-3.493c-.485-.28-.424-.771.137-1.094l5.994-3.461a2.108,2.108,0,0,1,1.9-.079l6.05,3.494c.485.28.424.769-.136,1.093l-5.994,3.462A2.108,2.108,0,0,1,311.005,263.4Z" transform="translate(-207.617 -186.464)" fill="#06033e"/>
        <path id="Path_15938" data-name="Path 15938" d="M318.537,267.751l-6.051-3.493c-.485-.282-.424-.771.136-1.094l6-3.462a2.105,2.105,0,0,1,1.895-.078l6.05,3.493c.486.28.426.771-.135,1.094l-6,3.462A2.105,2.105,0,0,1,318.537,267.751Z" transform="translate(-205.805 -185.417)" fill="#06033e"/>
        <path id="Path_15939" data-name="Path 15939" d="M326.067,272.1l-6.05-3.493c-.486-.28-.426-.771.135-1.094l6-3.46a2.106,2.106,0,0,1,1.895-.079l6.051,3.494c.485.28.424.77-.137,1.094l-6,3.46A2.105,2.105,0,0,1,326.067,272.1Z" transform="translate(-203.992 -184.371)" fill="#06033e"/>
        <path id="Path_15940" data-name="Path 15940" d="M269.39,230.912l-6.05-3.494c-.486-.28-.426-.771.135-1.094l6-3.46a2.105,2.105,0,0,1,1.895-.078l6.051,3.493c.485.28.424.771-.136,1.094l-6,3.46A2.106,2.106,0,0,1,269.39,230.912Z" transform="translate(-217.637 -194.286)" fill="#06033e"/>
        <path id="Path_15941" data-name="Path 15941" d="M261.746,226.5l-6.05-3.493c-.485-.28-.424-.771.136-1.094l5.994-3.46a2.1,2.1,0,0,1,1.9-.079l6.05,3.493c.485.282.424.771-.136,1.094l-5.994,3.462A2.108,2.108,0,0,1,261.746,226.5Z" transform="translate(-219.477 -195.349)" fill="#06033e"/>
        <path id="Path_15942" data-name="Path 15942" d="M255.446,222.861l-13.03-7.523c-.485-.28-.424-.77.136-1.094l5.994-3.46a2.108,2.108,0,0,1,1.9-.079l13.03,7.524c.485.28.424.77-.136,1.094l-5.994,3.46A2.108,2.108,0,0,1,255.446,222.861Z" transform="translate(-222.674 -197.195)" fill="#06033e"/>
        <path id="Path_15943" data-name="Path 15943" d="M260.32,217.212l-10.575-6.106c-.485-.28-.424-.771.136-1.094l6-3.46a2.106,2.106,0,0,1,1.895-.079l10.575,6.106c.485.28.424.77-.137,1.094l-5.994,3.46A2.108,2.108,0,0,1,260.32,217.212Z" transform="translate(-220.909 -198.214)" fill="#06033e"/>
        <path id="Path_15944" data-name="Path 15944" d="M276.919,235.259l-6.05-3.493c-.485-.28-.424-.771.136-1.094l5.994-3.46a2.108,2.108,0,0,1,1.9-.079l6.05,3.494c.485.28.424.771-.137,1.093l-5.994,3.462A2.108,2.108,0,0,1,276.919,235.259Z" transform="translate(-215.824 -193.24)" fill="#06033e"/>
        <path id="Path_15945" data-name="Path 15945" d="M284.451,239.607l-6.051-3.493c-.485-.282-.424-.77.136-1.094l5.994-3.462a2.108,2.108,0,0,1,1.9-.078l6.05,3.493c.486.28.426.771-.136,1.094l-5.994,3.462A2.105,2.105,0,0,1,284.451,239.607Z" transform="translate(-214.011 -192.193)" fill="#06033e"/>
        <path id="Path_15946" data-name="Path 15946" d="M291.981,243.953l-6.05-3.493c-.486-.28-.426-.771.135-1.094l6-3.46a2.11,2.11,0,0,1,1.895-.079l6.05,3.494c.486.28.426.771-.135,1.094l-6,3.46A2.1,2.1,0,0,1,291.981,243.953Z" transform="translate(-212.198 -191.146)" fill="#06033e"/>
        <path id="Path_15947" data-name="Path 15947" d="M299.511,248.3l-6.05-3.493c-.486-.28-.426-.771.136-1.094l5.994-3.462a2.105,2.105,0,0,1,1.895-.078l6.051,3.493c.485.28.424.771-.137,1.094l-5.994,3.462A2.108,2.108,0,0,1,299.511,248.3Z" transform="translate(-210.385 -190.1)" fill="#06033e"/>
        <path id="Path_15948" data-name="Path 15948" d="M307.04,252.65l-6.05-3.494c-.485-.28-.424-.769.136-1.094l5.994-3.46a2.108,2.108,0,0,1,1.9-.078l6.05,3.493c.485.28.424.771-.136,1.094l-5.994,3.46A2.108,2.108,0,0,1,307.04,252.65Z" transform="translate(-208.572 -189.053)" fill="#06033e"/>
        <path id="Path_15949" data-name="Path 15949" d="M314.57,257l-6.05-3.493c-.485-.28-.424-.77.136-1.094l5.994-3.46a2.108,2.108,0,0,1,1.9-.079l6.05,3.494c.486.28.426.77-.137,1.094l-5.994,3.461A2.108,2.108,0,0,1,314.57,257Z" transform="translate(-206.759 -188.006)" fill="#06033e"/>
        <path id="Path_15950" data-name="Path 15950" d="M322.1,261.345l-6.05-3.493c-.486-.28-.426-.77.135-1.094l6-3.462a2.105,2.105,0,0,1,1.895-.078l6.05,3.493c.486.28.426.771-.135,1.094l-6,3.46A2.1,2.1,0,0,1,322.1,261.345Z" transform="translate(-204.946 -186.96)" fill="#06033e"/>
        <path id="Path_15951" data-name="Path 15951" d="M329.632,265.692l-6.05-3.493c-.486-.28-.426-.771.136-1.094l5.994-3.46a2.1,2.1,0,0,1,1.895-.078l6.051,3.493c.485.28.424.771-.136,1.094l-6,3.46A2.1,2.1,0,0,1,329.632,265.692Z" transform="translate(-203.133 -185.913)" fill="#06033e"/>
        <path id="Path_15952" data-name="Path 15952" d="M337.161,270.04l-6.05-3.493c-.485-.28-.424-.771.136-1.094l5.994-3.46a2.108,2.108,0,0,1,1.9-.079l6.05,3.493c.485.28.424.77-.137,1.094l-5.994,3.462A2.108,2.108,0,0,1,337.161,270.04Z" transform="translate(-201.32 -184.866)" fill="#06033e"/>
        <path id="Path_15953" data-name="Path 15953" d="M351.936,278.57l-13.2-7.621c-.485-.282-.424-.771.137-1.094l5.994-3.462a2.108,2.108,0,0,1,1.9-.078l13.2,7.622c.486.279.424.769-.136,1.093l-5.994,3.462A2.108,2.108,0,0,1,351.936,278.57Z" transform="translate(-199.485 -183.807)" fill="#06033e"/>
        <path id="Path_15954" data-name="Path 15954" d="M366.2,269.875l-11.142-6.433c-.486-.28-.426-.771.136-1.094l5.994-3.46a2.108,2.108,0,0,1,1.9-.078l11.142,6.432c.485.28.424.771-.137,1.094l-6,3.462A2.105,2.105,0,0,1,366.2,269.875Z" transform="translate(-195.556 -185.614)" fill="#06033e"/>
        <path id="Path_15955" data-name="Path 15955" d="M290.106,234.409l-6.05-3.494c-.485-.28-.424-.769.136-1.094l5.994-3.46a2.108,2.108,0,0,1,1.9-.078l6.05,3.493c.485.28.424.771-.137,1.094L292,234.329A2.108,2.108,0,0,1,290.106,234.409Z" transform="translate(-212.649 -193.445)" fill="#06033e"/>
        <path id="Path_15956" data-name="Path 15956" d="M282.39,229.953l-6.05-3.493c-.486-.282-.426-.771.135-1.094l6-3.462a2.105,2.105,0,0,1,1.895-.078l6.05,3.493c.486.28.426.771-.135,1.094l-6,3.46A2.1,2.1,0,0,1,282.39,229.953Z" transform="translate(-214.507 -194.517)" fill="#06033e"/>
        <path id="Path_15957" data-name="Path 15957" d="M274.671,225.5,268.622,222c-.485-.28-.424-.77.136-1.094l5.994-3.462a2.112,2.112,0,0,1,1.9-.078l6.05,3.493c.485.28.424.771-.136,1.094l-5.994,3.462A2.108,2.108,0,0,1,274.671,225.5Z" transform="translate(-216.365 -195.59)" fill="#06033e"/>
        <path id="Path_15958" data-name="Path 15958" d="M266.955,221.041l-6.051-3.493c-.485-.28-.424-.771.137-1.094l6-3.46a2.106,2.106,0,0,1,1.895-.079l6.05,3.494c.486.28.426.771-.135,1.094l-6,3.46A2.105,2.105,0,0,1,266.955,221.041Z" transform="translate(-218.223 -196.663)" fill="#06033e"/>
        <path id="Path_15959" data-name="Path 15959" d="M297.638,238.756l-6.051-3.493c-.485-.28-.424-.771.136-1.094l6-3.46a2.106,2.106,0,0,1,1.895-.079l6.05,3.494c.486.28.426.769-.137,1.093l-5.994,3.462A2.105,2.105,0,0,1,297.638,238.756Z" transform="translate(-210.836 -192.398)" fill="#06033e"/>
        <path id="Path_15960" data-name="Path 15960" d="M305.168,243.1l-6.05-3.493c-.486-.28-.426-.771.135-1.094l6-3.462a2.105,2.105,0,0,1,1.895-.078l6.05,3.493c.486.28.426.771-.135,1.094l-6,3.46A2.1,2.1,0,0,1,305.168,243.1Z" transform="translate(-209.023 -191.351)" fill="#06033e"/>
        <path id="Path_15961" data-name="Path 15961" d="M312.7,247.451l-6.05-3.493c-.486-.28-.424-.771.136-1.094l5.994-3.46a2.1,2.1,0,0,1,1.9-.078l6.05,3.493c.485.28.424.771-.137,1.094l-5.994,3.46A2.108,2.108,0,0,1,312.7,247.451Z" transform="translate(-207.21 -190.304)" fill="#06033e"/>
        <path id="Path_15962" data-name="Path 15962" d="M320.228,251.8l-6.05-3.493c-.485-.28-.424-.77.136-1.094l5.994-3.462a2.108,2.108,0,0,1,1.9-.078l6.05,3.493c.485.28.424.771-.137,1.094l-5.994,3.462A2.108,2.108,0,0,1,320.228,251.8Z" transform="translate(-205.397 -189.258)" fill="#06033e"/>
        <path id="Path_15963" data-name="Path 15963" d="M327.759,256.147l-6.051-3.494c-.485-.28-.424-.771.136-1.093l6-3.462a2.105,2.105,0,0,1,1.895-.078l6.05,3.493c.486.28.426.77-.135,1.094l-6,3.46A2.106,2.106,0,0,1,327.759,256.147Z" transform="translate(-203.584 -188.211)" fill="#06033e"/>
        <path id="Path_15964" data-name="Path 15964" d="M335.289,260.494,329.239,257c-.486-.28-.425-.77.135-1.094l6-3.46a2.106,2.106,0,0,1,1.895-.079l6.05,3.494c.486.28.425.769-.135,1.093l-6,3.462A2.105,2.105,0,0,1,335.289,260.494Z" transform="translate(-201.771 -187.164)" fill="#06033e"/>
        <path id="Path_15965" data-name="Path 15965" d="M342.819,264.842l-6.05-3.493c-.486-.282-.424-.771.137-1.094l5.994-3.462a2.108,2.108,0,0,1,1.9-.078l6.05,3.493c.485.28.424.771-.136,1.094l-5.994,3.46A2.1,2.1,0,0,1,342.819,264.842Z" transform="translate(-199.958 -186.118)" fill="#06033e"/>
        <path id="Path_15966" data-name="Path 15966" d="M350.348,269.189,344.3,265.7c-.485-.28-.424-.771.137-1.094l5.994-3.46a2.112,2.112,0,0,1,1.9-.079l6.05,3.494c.486.28.424.771-.136,1.094l-5.994,3.46A2.108,2.108,0,0,1,350.348,269.189Z" transform="translate(-198.146 -185.071)" fill="#06033e"/>
        <path id="Path_15967" data-name="Path 15967" d="M357.88,273.537l-6.05-3.493c-.486-.28-.426-.771.135-1.094l6-3.462a2.105,2.105,0,0,1,1.895-.078l6.05,3.493c.486.28.426.771-.135,1.094l-6,3.462A2.105,2.105,0,0,1,357.88,273.537Z" transform="translate(-196.333 -184.024)" fill="#06033e"/>
        <path id="Path_15968" data-name="Path 15968" d="M286.142,223.655l-6.05-3.493c-.485-.28-.424-.771.136-1.094l5.994-3.46a2.1,2.1,0,0,1,1.9-.079l6.05,3.493c.485.282.424.771-.136,1.094l-5.994,3.462A2.108,2.108,0,0,1,286.142,223.655Z" transform="translate(-213.604 -196.034)" fill="#06033e"/>
        <path id="Path_15969" data-name="Path 15969" d="M278.648,219.329l-6.05-3.493c-.485-.28-.424-.77.137-1.094l5.994-3.46a2.1,2.1,0,0,1,1.9-.079l6.05,3.493c.486.282.424.771-.137,1.094l-5.994,3.462A2.108,2.108,0,0,1,278.648,219.329Z" transform="translate(-215.407 -197.075)" fill="#06033e"/>
        <path id="Path_15970" data-name="Path 15970" d="M271.157,215l-6.051-3.493c-.485-.28-.424-.771.137-1.094l6-3.46a2.1,2.1,0,0,1,1.895-.079l6.05,3.493c.486.282.426.77-.135,1.094l-6,3.462A2.106,2.106,0,0,1,271.157,215Z" transform="translate(-217.211 -198.116)" fill="#06033e"/>
        <path id="Path_15971" data-name="Path 15971" d="M263.664,210.677l-6.05-3.493c-.486-.28-.426-.771.135-1.094l6-3.46a2.1,2.1,0,0,1,1.895-.079l6.05,3.493c.486.282.426.771-.135,1.094l-6,3.462A2.105,2.105,0,0,1,263.664,210.677Z" transform="translate(-219.015 -199.158)" fill="#06033e"/>
        <path id="Path_15972" data-name="Path 15972" d="M271.369,205.779l-6.05-3.493c-.486-.282-.426-.771.135-1.094l1.981-1.144a2.1,2.1,0,0,1,1.9-.079l6.05,3.493c.485.28.424.771-.136,1.094l-1.982,1.144A2.106,2.106,0,0,1,271.369,205.779Z" transform="translate(-217.16 -199.779)" fill="#06033e"/>
        <path id="Path_15973" data-name="Path 15973" d="M281.147,211.424l-6.05-3.493c-.486-.28-.426-.771.135-1.094l1.982-1.144a2.1,2.1,0,0,1,1.9-.078l6.05,3.493c.486.28.424.771-.137,1.094l-1.981,1.144A2.105,2.105,0,0,1,281.147,211.424Z" transform="translate(-214.806 -198.42)" fill="#06033e"/>
        <path id="Path_15974" data-name="Path 15974" d="M288.607,215.732l-6.05-3.493c-.485-.28-.424-.771.137-1.094L284.676,210a2.1,2.1,0,0,1,1.9-.078l6.05,3.493c.485.28.424.771-.137,1.094l-1.981,1.144A2.108,2.108,0,0,1,288.607,215.732Z" transform="translate(-213.01 -197.383)" fill="#06033e"/>
        <path id="Path_15975" data-name="Path 15975" d="M296.07,220.04l-6.05-3.493c-.486-.28-.426-.771.135-1.094l1.983-1.144a2.106,2.106,0,0,1,1.895-.079l6.05,3.494c.486.28.426.771-.135,1.094l-1.983,1.144A2.105,2.105,0,0,1,296.07,220.04Z" transform="translate(-211.213 -196.346)" fill="#06033e"/>
        <path id="Path_15976" data-name="Path 15976" d="M303.53,224.348l-6.05-3.493c-.485-.28-.424-.771.136-1.094l1.982-1.144a2.108,2.108,0,0,1,1.9-.079l6.05,3.494c.485.28.424.771-.136,1.094l-1.982,1.144A2.108,2.108,0,0,1,303.53,224.348Z" transform="translate(-209.417 -195.309)" fill="#06033e"/>
        <path id="Path_15977" data-name="Path 15977" d="M345.188,248.4l-6.05-3.494c-.485-.28-.424-.771.137-1.094l1.981-1.144a2.105,2.105,0,0,1,1.895-.078l6.051,3.493c.485.28.424.771-.136,1.094l-1.982,1.144A2.108,2.108,0,0,1,345.188,248.4Z" transform="translate(-199.388 -189.519)" fill="#06033e"/>
        <path id="Path_15978" data-name="Path 15978" d="M352.65,252.706l-6.05-3.493c-.486-.28-.426-.771.135-1.094l1.983-1.144a2.105,2.105,0,0,1,1.895-.078l6.05,3.493c.486.28.426.771-.135,1.094l-1.983,1.144A2.1,2.1,0,0,1,352.65,252.706Z" transform="translate(-197.592 -188.481)" fill="#06033e"/>
        <path id="Path_15979" data-name="Path 15979" d="M360.11,257.015l-6.05-3.494c-.485-.28-.424-.771.137-1.094l1.982-1.144a2.108,2.108,0,0,1,1.9-.078l6.05,3.493c.485.28.424.77-.137,1.094l-1.981,1.144A2.112,2.112,0,0,1,360.11,257.015Z" transform="translate(-195.795 -187.444)" fill="#06033e"/>
        <path id="Path_15980" data-name="Path 15980" d="M367.573,261.322l-6.05-3.493c-.486-.28-.426-.77.136-1.094l1.981-1.144a2.105,2.105,0,0,1,1.895-.078l6.05,3.493c.486.28.426.771-.135,1.094l-1.981,1.144A2.1,2.1,0,0,1,367.573,261.322Z" transform="translate(-193.999 -186.407)" fill="#06033e"/>
        <path id="Path_15981" data-name="Path 15981" d="M293.671,228l-6.05-3.494c-.485-.28-.424-.769.136-1.094l5.994-3.46a2.108,2.108,0,0,1,1.9-.078l6.05,3.493c.486.28.424.77-.136,1.094l-5.994,3.46A2.108,2.108,0,0,1,293.671,228Z" transform="translate(-211.791 -194.987)" fill="#06033e"/>
        <path id="Path_15982" data-name="Path 15982" d="M301.2,232.35l-6.05-3.493c-.486-.28-.426-.771.135-1.094l6-3.46a2.106,2.106,0,0,1,1.895-.079l6.05,3.494c.486.28.426.77-.135,1.093l-6,3.462A2.105,2.105,0,0,1,301.2,232.35Z" transform="translate(-209.978 -193.94)" fill="#06033e"/>
        <path id="Path_15983" data-name="Path 15983" d="M308.733,236.7l-6.05-3.493c-.486-.28-.426-.771.135-1.094l6-3.462a2.105,2.105,0,0,1,1.895-.078l6.051,3.493c.485.28.424.771-.136,1.094l-6,3.462A2.105,2.105,0,0,1,308.733,236.7Z" transform="translate(-208.165 -192.893)" fill="#06033e"/>
        <path id="Path_15984" data-name="Path 15984" d="M316.262,241.044l-6.05-3.493c-.485-.28-.424-.771.137-1.094l5.994-3.46a2.108,2.108,0,0,1,1.9-.078l6.05,3.493c.485.28.424.771-.136,1.094l-5.994,3.46A2.1,2.1,0,0,1,316.262,241.044Z" transform="translate(-206.352 -191.847)" fill="#06033e"/>
        <path id="Path_15985" data-name="Path 15985" d="M323.792,245.393l-6.05-3.493c-.485-.28-.424-.771.137-1.094l5.994-3.462a2.112,2.112,0,0,1,1.9-.078l6.05,3.493c.486.28.424.77-.137,1.094l-5.994,3.462A2.108,2.108,0,0,1,323.792,245.393Z" transform="translate(-204.539 -190.8)" fill="#06033e"/>
        <path id="Path_15986" data-name="Path 15986" d="M331.324,249.741l-6.05-3.494c-.486-.28-.426-.769.135-1.093l6-3.462a2.105,2.105,0,0,1,1.895-.078l6.05,3.493c.486.28.426.771-.135,1.094l-6,3.46A2.106,2.106,0,0,1,331.324,249.741Z" transform="translate(-202.726 -189.753)" fill="#06033e"/>
        <path id="Path_15987" data-name="Path 15987" d="M338.854,254.088l-6.05-3.493c-.486-.28-.426-.771.135-1.094l6-3.46a2.106,2.106,0,0,1,1.895-.079l6.051,3.494c.485.28.424.769-.136,1.094l-6,3.46A2.105,2.105,0,0,1,338.854,254.088Z" transform="translate(-200.913 -188.707)" fill="#06033e"/>
        <path id="Path_15988" data-name="Path 15988" d="M346.383,258.436l-6.05-3.493c-.485-.28-.424-.771.137-1.094l5.994-3.462a2.108,2.108,0,0,1,1.9-.078l6.05,3.493c.485.28.424.771-.137,1.094l-5.994,3.462A2.108,2.108,0,0,1,346.383,258.436Z" transform="translate(-199.1 -187.66)" fill="#06033e"/>
        <path id="Path_15989" data-name="Path 15989" d="M353.915,262.783l-6.051-3.493c-.485-.28-.424-.771.136-1.094l6-3.46a2.105,2.105,0,0,1,1.895-.078l6.05,3.493c.486.28.426.771-.136,1.094l-5.994,3.46A2.105,2.105,0,0,1,353.915,262.783Z" transform="translate(-197.287 -186.613)" fill="#06033e"/>
        <path id="Path_15990" data-name="Path 15990" d="M252.9,229.857,235.086,219.57c-.486-.28-.426-.77.136-1.094l5.994-3.46a2.1,2.1,0,0,1,1.9-.078l17.817,10.287c.486.28.426.771-.135,1.094l-6,3.46A2.105,2.105,0,0,1,252.9,229.857Z" transform="translate(-224.439 -196.176)" fill="#06033e"/>
        <path id="Path_15991" data-name="Path 15991" d="M345.415,283.269,327.6,272.982c-.486-.282-.424-.771.137-1.094l5.994-3.462a2.108,2.108,0,0,1,1.9-.078l17.817,10.287c.486.28.426.77-.135,1.094l-6,3.46A2.106,2.106,0,0,1,345.415,283.269Z" transform="translate(-202.167 -183.317)" fill="#06033e"/>
        <path id="Path_15992" data-name="Path 15992" d="M313.016,274.3l-6.05-3.494c-.485-.28-.424-.771.137-1.094l7.141-4.123a2.108,2.108,0,0,1,1.9-.078l6.05,3.493c.485.28.424.771-.136,1.094l-7.141,4.123A2.108,2.108,0,0,1,313.016,274.3Z" transform="translate(-207.133 -184.001)" fill="#06033e"/>
        <path id="Path_15993" data-name="Path 15993" d="M259.035,243.129l-9.675-5.586c-.486-.28-.424-.771.136-1.094l7.141-4.123a2.1,2.1,0,0,1,1.9-.078l9.675,5.586c.486.28.424.771-.137,1.094l-7.141,4.123A2.108,2.108,0,0,1,259.035,243.129Z" transform="translate(-221.002 -192.008)" fill="#06033e"/>
        <path id="Path_15994" data-name="Path 15994" d="M306.465,270.512l-9.677-5.586c-.485-.28-.424-.771.136-1.094l7.142-4.123a2.105,2.105,0,0,1,1.895-.078l9.675,5.586c.486.28.426.771-.135,1.094l-7.142,4.123A2.1,2.1,0,0,1,306.465,270.512Z" transform="translate(-209.584 -185.416)" fill="#06033e"/>
        <path id="Path_15995" data-name="Path 15995" d="M269.9,249.4l-9.675-5.587c-.486-.28-.426-.771.135-1.093L267.5,238.6a2.1,2.1,0,0,1,1.895-.079l9.677,5.587c.485.28.424.769-.136,1.094l-7.142,4.122A2.106,2.106,0,0,1,269.9,249.4Z" transform="translate(-218.387 -190.498)" fill="#06033e"/>
        <path id="Path_15996" data-name="Path 15996" d="M269.386,238.514,311.454,262.8a.575.575,0,0,1,0,1.091l-7.282,4.2a2.089,2.089,0,0,1-1.891,0L260.213,243.81Z" transform="translate(-218.31 -190.454)" fill="#06033e"/>
        <path id="Path_15997" data-name="Path 15997" d="M333.767,280.466l6.74,3.891c.4.23.347.632-.112.9l-2.922,1.686a1.727,1.727,0,0,1-1.553.064l-6.738-3.891c-.4-.23-.349-.632.112-.9l2.921-1.686A1.728,1.728,0,0,1,333.767,280.466Z" transform="translate(-201.771 -180.391)" fill="#06033e"/>
        <path id="Path_15998" data-name="Path 15998" d="M326.174,276.082l6.74,3.891c.4.231.349.632-.112.9l-2.921,1.687a1.732,1.732,0,0,1-1.553.065l-6.74-3.891c-.4-.231-.349-.632.112-.9l2.921-1.687A1.731,1.731,0,0,1,326.174,276.082Z" transform="translate(-203.599 -181.447)" fill="#06033e"/>
        <path id="Path_15999" data-name="Path 15999" d="M318.644,271.735l6.74,3.891c.4.23.347.632-.112.9l-2.922,1.686a1.727,1.727,0,0,1-1.553.064l-6.739-3.891c-.4-.23-.349-.632.112-.9l2.921-1.686A1.727,1.727,0,0,1,318.644,271.735Z" transform="translate(-205.412 -182.493)" fill="#06033e"/>
        <path id="Path_16000" data-name="Path 16000" d="M330.333,273.682l6.738,3.891c.4.23.349.632-.112.9l-2.921,1.687a1.727,1.727,0,0,1-1.553.065l-6.74-3.891c-.4-.23-.347-.632.112-.9l2.922-1.686A1.723,1.723,0,0,1,330.333,273.682Z" transform="translate(-202.598 -182.025)" fill="#06033e"/>
      </g>
      <path id="Path_16001" data-name="Path 16001" d="M444.417,312.7,265.92,209.647a7.908,7.908,0,0,1-3.272-8.819L303.015,69.765c1-3.25,4.086-4.571,6.892-2.951L488.4,169.87a7.905,7.905,0,0,1,3.272,8.819L451.309,309.751C450.31,313,447.223,314.322,444.417,312.7Z" transform="translate(-109.256 -65.057)" fill="url(#radial-gradient-4)"/>
      <path id="Path_16002" data-name="Path 16002" d="M441.99,307.195,268.858,207.154a7.565,7.565,0,0,1-3.132-8.44L304.319,73.42c.957-3.111,3.91-4.375,6.6-2.824L484.047,170.636a7.567,7.567,0,0,1,3.132,8.441L448.586,304.371C447.629,307.481,444.676,308.746,441.99,307.195Z" transform="translate(-108.512 -64.14)" fill="url(#linear-gradient-5)"/>
      <path id="Path_16003" data-name="Path 16003" d="M441.99,307.195,268.858,207.154a7.565,7.565,0,0,1-3.132-8.44L304.319,73.42c.957-3.111,3.91-4.375,6.6-2.824L484.047,170.636a7.567,7.567,0,0,1,3.132,8.441L448.586,304.371C447.629,307.481,444.676,308.746,441.99,307.195Z" transform="translate(-108.512 -64.14)" fill="#06033e" opacity="0.4"/>
      <path id="Path_16004" data-name="Path 16004" d="M441.99,307.195,268.858,207.154a7.565,7.565,0,0,1-3.132-8.44L304.319,73.42c.957-3.111,3.91-4.375,6.6-2.824L484.047,170.636a7.567,7.567,0,0,1,3.132,8.441L448.586,304.371C447.629,307.481,444.676,308.746,441.99,307.195Z" transform="translate(-108.512 -64.14)" fill="#06033e" opacity="0.4"/>
      <path id="Path_16005" data-name="Path 16005" d="M423.431,261.712l-117.2-67.666a5.191,5.191,0,0,1-2.148-5.792l26.5-86.055a3.01,3.01,0,0,1,4.526-1.938l117.2,67.667a5.191,5.191,0,0,1,2.148,5.791l-26.5,86.055A3.01,3.01,0,0,1,423.431,261.712Z" transform="translate(-99.255 -56.947)" fill="#06033e" opacity="0.5"/>
      <g id="Group_16155" data-name="Group 16155" transform="translate(188.785 44.938)">
        <path id="Path_16006" data-name="Path 16006" d="M410.668,263.386l-117.2-67.666a5.193,5.193,0,0,1-2.148-5.792l26.5-86.055a3.009,3.009,0,0,1,4.525-1.938L439.55,169.6a5.191,5.191,0,0,1,2.149,5.791l-26.5,86.055A3.009,3.009,0,0,1,410.668,263.386Z" transform="translate(-291.113 -101.482)" fill="url(#radial-gradient-5)"/>
      </g>
      <g id="Group_16156" data-name="Group 16156" transform="translate(188.785 44.938)" opacity="0.5">
        <path id="Path_16007" data-name="Path 16007" d="M410.668,263.386l-117.2-67.666a5.193,5.193,0,0,1-2.148-5.792l26.5-86.055a3.009,3.009,0,0,1,4.525-1.938L439.55,169.6a5.191,5.191,0,0,1,2.149,5.791l-26.5,86.055A3.009,3.009,0,0,1,410.668,263.386Z" transform="translate(-291.113 -101.482)" fill="#06033e"/>
      </g>
      <path id="Path_16008" data-name="Path 16008" d="M434.129,169.6l-117.2-67.667a2.918,2.918,0,0,0-3.3.113,3.157,3.157,0,0,1,1.692.433l117.2,67.667a5.191,5.191,0,0,1,2.149,5.791l-26.5,86.055a3.536,3.536,0,0,1-1.228,1.825,3.1,3.1,0,0,0,2.834-2.371l26.5-86.055A5.189,5.189,0,0,0,434.129,169.6Z" transform="translate(-96.907 -56.544)" fill="#fff"/>
      <path id="Path_16009" data-name="Path 16009" d="M278.662,298.3a8.818,8.818,0,0,1-4.343-1.019h0l-46.956-27.109a3.4,3.4,0,0,1-1.929-2.893c0-1.331.944-2.639,2.589-3.59l24.17-13.956c2.954-1.7,7.288-1.871,9.873-.381l46.956,27.11a3.394,3.394,0,0,1,1.931,2.893c0,1.33-.944,2.639-2.589,3.588l-24.172,13.957A11.321,11.321,0,0,1,278.662,298.3Zm-20.917-48.59a10.08,10.08,0,0,0-4.874,1.2L228.7,264.868c-1.216.7-1.913,1.583-1.913,2.416A2.141,2.141,0,0,0,228.042,269L275,296.112c2.13,1.227,6.029,1.056,8.515-.382l24.171-13.955c1.216-.7,1.912-1.581,1.912-2.414a2.144,2.144,0,0,0-1.253-1.718l-46.955-27.109A7.45,7.45,0,0,0,257.746,249.713Z" transform="translate(-118.14 -21.188)" fill="#06033e" opacity="0.4"/>
    </g>
    <g id="Group_16159" data-name="Group 16159" transform="translate(360.241 145.398)">
      <g id="Group_16158" data-name="Group 16158" transform="translate(7.769 5.786)">
        <path id="Path_16010" data-name="Path 16010" d="M340.87,139.617l-7.245-4.184a1.888,1.888,0,0,1-.805-2.083h0a1.073,1.073,0,0,1,1.629-.679l7.245,4.184a1.888,1.888,0,0,1,.805,2.083h0A1.073,1.073,0,0,1,340.87,139.617Z" transform="translate(-306 -128.324)" fill="#fff"/>
        <path id="Path_16011" data-name="Path 16011" d="M355.449,148.032l-10.684-6.169a1.889,1.889,0,0,1-.805-2.083h0a1.073,1.073,0,0,1,1.629-.677l10.684,6.168a1.891,1.891,0,0,1,.805,2.084h0A1.073,1.073,0,0,1,355.449,148.032Z" transform="translate(-303.318 -126.775)" fill="#fff"/>
        <path id="Path_16012" data-name="Path 16012" d="M329.093,165.615l-7.246-4.183a1.893,1.893,0,0,1-.805-2.084h0a1.073,1.073,0,0,1,1.629-.677l7.246,4.184a1.887,1.887,0,0,1,.805,2.083h0A1.073,1.073,0,0,1,329.093,165.615Z" transform="translate(-308.835 -122.064)" fill="#fff"/>
        <path id="Path_16013" data-name="Path 16013" d="M342.161,173.161l-10.684-6.169a1.892,1.892,0,0,1-.805-2.083h0a1.074,1.074,0,0,1,1.629-.679l10.684,6.169a1.888,1.888,0,0,1,.805,2.083h0A1.073,1.073,0,0,1,342.161,173.161Z" transform="translate(-306.517 -120.726)" fill="#fff"/>
        <path id="Path_16014" data-name="Path 16014" d="M322.85,134.678l-4.526-2.613a1.888,1.888,0,0,1-.805-2.083h0a1.073,1.073,0,0,1,1.629-.679l4.526,2.614a1.889,1.889,0,0,1,.805,2.083h0A1.073,1.073,0,0,1,322.85,134.678Z" transform="translate(-309.684 -129.134)" fill="#fff"/>
        <path id="Path_16015" data-name="Path 16015" d="M335.632,147.525,321.8,139.54a1.888,1.888,0,0,1-.805-2.083h0a1.073,1.073,0,0,1,1.629-.679l13.829,7.985a1.888,1.888,0,0,1,.805,2.083h0A1.073,1.073,0,0,1,335.632,147.525Z" transform="translate(-308.846 -127.335)" fill="#fff"/>
        <path id="Path_16016" data-name="Path 16016" d="M323.547,151.48l-4.527-2.613a1.892,1.892,0,0,1-.805-2.083h0a1.073,1.073,0,0,1,1.629-.679l4.527,2.613a1.893,1.893,0,0,1,.805,2.084h0A1.073,1.073,0,0,1,323.547,151.48Z" transform="translate(-309.516 -125.089)" fill="#fff"/>
        <path id="Path_16017" data-name="Path 16017" d="M343.778,185.027l-12.09-6.98a1.889,1.889,0,0,1-.805-2.083h0a1.073,1.073,0,0,1,1.629-.679l12.09,6.98a1.89,1.89,0,0,1,.805,2.083h0A1.073,1.073,0,0,1,343.778,185.027Z" transform="translate(-306.466 -118.064)" fill="#fff"/>
        <path id="Path_16018" data-name="Path 16018" d="M319.143,159.87l-2.906-1.676a1.891,1.891,0,0,1-.805-2.084h0a1.073,1.073,0,0,1,1.629-.677l2.906,1.678a1.889,1.889,0,0,1,.805,2.083h0A1.072,1.072,0,0,1,319.143,159.87Z" transform="translate(-310.186 -122.844)" fill="#fff"/>
        <path id="Path_16019" data-name="Path 16019" d="M317.064,169.6l-3.608-2.083a1.887,1.887,0,0,1-.805-2.083h0a1.072,1.072,0,0,1,1.629-.677l3.608,2.083a1.889,1.889,0,0,1,.805,2.083h0A1.073,1.073,0,0,1,317.064,169.6Z" transform="translate(-310.856 -120.598)" fill="#fff"/>
        <path id="Path_16020" data-name="Path 16020" d="M329.522,176.8l-9.513-5.493a1.889,1.889,0,0,1-.805-2.083h0a1.072,1.072,0,0,1,1.629-.677l9.513,5.492a1.89,1.89,0,0,1,.805,2.083h0A1.073,1.073,0,0,1,329.522,176.8Z" transform="translate(-309.278 -119.687)" fill="#fff"/>
        <path id="Path_16021" data-name="Path 16021" d="M318.9,176.132l-6.839-3.948a1.889,1.889,0,0,1-.805-2.084h0a1.073,1.073,0,0,1,1.629-.677l6.839,3.949a1.888,1.888,0,0,1,.805,2.083h0A1.073,1.073,0,0,1,318.9,176.132Z" transform="translate(-311.191 -119.476)" fill="#fff"/>
        <path id="Path_16022" data-name="Path 16022" d="M350.644,189.015l-4.392-2.536a1.891,1.891,0,0,1-.805-2.084h0a1.073,1.073,0,0,1,1.629-.677l4.392,2.536a1.888,1.888,0,0,1,.805,2.083h0A1.073,1.073,0,0,1,350.644,189.015Z" transform="translate(-302.96 -116.034)" fill="#fff"/>
        <path id="Path_16023" data-name="Path 16023" d="M338.584,160.162l-12.09-6.98a1.889,1.889,0,0,1-.805-2.083h0a1.072,1.072,0,0,1,1.629-.677l12.09,6.979a1.891,1.891,0,0,1,.805,2.084h0A1.073,1.073,0,0,1,338.584,160.162Z" transform="translate(-307.717 -124.05)" fill="#fff"/>
      </g>
      <path id="Path_16024" data-name="Path 16024" d="M341.482,156.368,320.412,144.2a1.889,1.889,0,0,1-.805-2.084h0a1.073,1.073,0,0,1,1.629-.677l21.07,12.166a1.889,1.889,0,0,1,.805,2.083h0A1.073,1.073,0,0,1,341.482,156.368Z" transform="translate(-301.412 -120.426)" fill="#e8975b"/>
      <path id="Path_16025" data-name="Path 16025" d="M329.718,160.51l-12.09-6.98a1.889,1.889,0,0,1-.805-2.083h0a1.073,1.073,0,0,1,1.629-.679l12.09,6.98a1.89,1.89,0,0,1,.805,2.083h0A1.072,1.072,0,0,1,329.718,160.51Z" transform="translate(-302.082 -118.18)" fill="#e8975b"/>
      <path id="Path_16026" data-name="Path 16026" d="M344.481,163.567l-4.392-2.536a1.89,1.89,0,0,1-.805-2.083h0a1.073,1.073,0,0,1,1.629-.679L345.3,160.8a1.888,1.888,0,0,1,.805,2.083h0A1.073,1.073,0,0,1,344.481,163.567Z" transform="translate(-296.675 -116.375)" fill="#e8975b"/>
      <path id="Path_16027" data-name="Path 16027" d="M384.687,164.914,358.676,149.9a1.889,1.889,0,0,1-.805-2.084h0a1.073,1.073,0,0,1,1.629-.677l26.011,15.018a1.888,1.888,0,0,1,.805,2.083h0A1.073,1.073,0,0,1,384.687,164.914Z" transform="translate(-292.2 -119.055)" fill="#e8975b"/>
      <path id="Path_16028" data-name="Path 16028" d="M329.379,171.247l-14.533-8.39a1.89,1.89,0,0,1-.805-2.083h0a1.073,1.073,0,0,1,1.629-.679l14.533,8.391a1.889,1.889,0,0,1,.805,2.083h0A1.073,1.073,0,0,1,329.379,171.247Z" transform="translate(-302.752 -115.935)" fill="#f8359e"/>
      <path id="Path_16029" data-name="Path 16029" d="M330.4,133.569,319.714,127.4a1.891,1.891,0,0,1-.805-2.084h0a1.073,1.073,0,0,1,1.629-.677l10.684,6.168a1.891,1.891,0,0,1,.805,2.084h0A1.073,1.073,0,0,1,330.4,133.569Z" transform="translate(-301.58 -124.471)" fill="#f8359e"/>
      <path id="Path_16030" data-name="Path 16030" d="M318.176,181.179,305.8,174.035a1.889,1.889,0,0,1-.805-2.083h0a1.073,1.073,0,0,1,1.629-.679L319,178.417a1.889,1.889,0,0,1,.805,2.084h0A1.073,1.073,0,0,1,318.176,181.179Z" transform="translate(-304.929 -113.244)" fill="#e8975b"/>
    </g>
    <g id="Group_16160" data-name="Group 16160" transform="translate(449.713 172.678)">
      <path id="Path_16031" data-name="Path 16031" d="M382.976,151.658l-5.3-3.058a1.38,1.38,0,0,1-.588-1.522h0a.784.784,0,0,1,1.19-.5l5.3,3.058a1.38,1.38,0,0,1,.588,1.522h0A.784.784,0,0,1,382.976,151.658Z" transform="translate(-377.041 -146.458)" fill="#fff"/>
      <path id="Path_16032" data-name="Path 16032" d="M391.118,156.359l-5.3-3.058a1.381,1.381,0,0,1-.588-1.522h0a.785.785,0,0,1,1.191-.5l5.3,3.058a1.381,1.381,0,0,1,.589,1.522h0A.785.785,0,0,1,391.118,156.359Z" transform="translate(-375.081 -145.326)" fill="#fff"/>
      <path id="Path_16033" data-name="Path 16033" d="M399.26,161.059l-5.3-3.057a1.381,1.381,0,0,1-.588-1.522h0a.784.784,0,0,1,1.191-.5l5.3,3.057a1.383,1.383,0,0,1,.589,1.524h0A.784.784,0,0,1,399.26,161.059Z" transform="translate(-373.12 -144.194)" fill="#fff"/>
      <path id="Path_16034" data-name="Path 16034" d="M402.265,162.8l-.159-.1a1.383,1.383,0,0,1-.589-1.524h0a.784.784,0,0,1,1.191-.5l.159.1a1.383,1.383,0,0,1,.589,1.524h0A.784.784,0,0,1,402.265,162.8Z" transform="translate(-371.16 -143.063)" fill="#f8359e"/>
    </g>
    <path id="Path_16035" data-name="Path 16035" d="M191.039,222.924a19.383,19.383,0,0,1-9.693-2.589h0L145.867,199.85a4.912,4.912,0,0,1,0-8.509l35.478-20.482a19.435,19.435,0,0,1,19.388,0l35.479,20.484a4.912,4.912,0,0,1,0,8.509l-35.478,20.484A19.388,19.388,0,0,1,191.039,222.924Zm-8.539-4.59a17.135,17.135,0,0,0,17.08,0l35.478-20.484a2.6,2.6,0,0,0,0-4.509l-35.479-20.485a17.129,17.129,0,0,0-17.08,0l-35.478,20.484a2.6,2.6,0,0,0,0,4.509Z" transform="translate(16.425 31.471)" opacity="0.3" fill="url(#linear-gradient)"/>
    <g id="Group_16163" data-name="Group 16163" transform="translate(171.911 99.3)">
      <ellipse id="Ellipse_107" data-name="Ellipse 107" cx="24.369" cy="14.069" rx="24.369" ry="14.069" transform="translate(11.005 114.18)" fill="#020230" opacity="0.6"/>
      <path id="Path_16036" data-name="Path 16036" d="M224.235,109.863h-69.41l6.456,75.151h0c0,4.175,2.758,8.349,8.275,11.533,11.032,6.37,28.918,6.37,39.951,0,5.516-3.184,8.273-7.358,8.273-11.533Z" transform="translate(-152.738 -81.89)" fill="url(#radial-gradient-6)"/>
      <path id="Path_16037" data-name="Path 16037" d="M224.235,109.863h-69.41l1.062,12.364a27.009,27.009,0,0,0,6.433,5.787c13.262,8.8,35.148,10.494,50.08,4.158l-2.309,54.965a10.792,10.792,0,0,1-2.48,6.554c-2.248,2.646-6.58,5.76-14.906,7.52a39.161,39.161,0,0,0,16.8-4.664c5.516-3.184,8.273-7.358,8.273-11.533l5.178-60.27h0Z" transform="translate(-152.738 -81.89)" fill="#06033e" opacity="0.4"/>
      <ellipse id="Ellipse_108" data-name="Ellipse 108" cx="34.705" cy="20.037" rx="34.705" ry="20.037" transform="translate(2.087 7.936)" fill="#06033e" opacity="0.4"/>
      <ellipse id="Ellipse_109" data-name="Ellipse 109" cx="29.892" cy="17.258" rx="29.892" ry="17.258" transform="translate(6.9 3.652)" fill="#06033e" opacity="0.4"/>
      <path id="Path_16038" data-name="Path 16038" d="M226.7,114.329l0,0,0-.061c0-.034-.007-.068-.011-.1l-.666-6.729-.029.076c-.3-5.092-3.805-10.134-10.539-14.023-14.091-8.136-36.937-8.136-51.027,0-6.9,3.985-10.416,9.185-10.555,14.409l-.009-.019-.634,5.992c-.017.156-.038.313-.05.468l-.011.1.007,0c-.381,5.709,3.2,11.488,10.745,15.846,14.37,8.3,37.67,8.3,52.041,0C223.552,125.9,227.129,120.073,226.7,114.329Z" transform="translate(-153.143 -87.3)" fill="url(#linear-gradient-7)"/>
      <ellipse id="Ellipse_110" data-name="Ellipse 110" cx="29.892" cy="17.258" rx="29.892" ry="17.258" transform="translate(6.9 3.652)" fill="url(#linear-gradient-8)"/>
      <ellipse id="Ellipse_111" data-name="Ellipse 111" cx="29.892" cy="17.258" rx="29.892" ry="17.258" transform="translate(5.481 3.652)" fill="url(#linear-gradient-8)"/>
      <path id="Path_16039" data-name="Path 16039" d="M171,97.887c11.673-6.74,30.6-6.74,42.274,0,.149.086.273.18.418.267a23.785,23.785,0,0,0-3.964-2.838c-11.673-6.74-30.6-6.741-42.274,0-11.525,6.654-11.649,17.383-.418,24.14C159.539,112.769,160.853,103.747,171,97.887Z" transform="translate(-151.802 -86.609)" fill="#06033e" opacity="0.4"/>
      <path id="Path_16040" data-name="Path 16040" d="M167.458,98.311c11.674-6.74,30.6-6.739,42.274,0,5.178,2.988,8.052,6.8,8.639,10.705.735-4.9-2.142-9.95-8.639-13.7-11.673-6.74-30.6-6.741-42.274,0-6.5,3.752-9.373,8.8-8.638,13.7C159.405,105.111,162.281,101.3,167.458,98.311Z" transform="translate(-151.803 -86.609)" fill="url(#linear-gradient-10)"/>
      <path id="Path_16041" data-name="Path 16041" d="M215.56,93.669c-14.071-8.289-37-8.492-51.215-.45s-14.331,21.279-.259,29.568,37,8.492,51.215.45S229.63,101.959,215.56,93.669Zm-4.6,26.763a38.965,38.965,0,0,1-13.592,4.479l-.542-1.783a1.71,1.71,0,0,0-1.637-1.211H184.456a1.71,1.71,0,0,0-1.635,1.211l-.542,1.783a38.925,38.925,0,0,1-13.591-4.48c-11.674-6.74-11.675-17.667,0-24.407s30.6-6.739,42.274,0S222.633,113.693,210.96,120.432Z" transform="translate(-153.031 -87.318)" fill="url(#radial-gradient-7)"/>
      <g id="Group_16161" data-name="Group 16161" transform="translate(0.588 2.375)">
        <path id="Path_16042" data-name="Path 16042" d="M209.731,94.287c-11.673-6.74-30.6-6.741-42.274,0-6.118,3.531-9.024,8.214-8.729,12.841.268-4.2,3.174-8.356,8.729-11.564,11.673-6.74,30.6-6.74,42.274,0,5.556,3.207,8.462,7.363,8.73,11.564C218.757,102.5,215.851,97.819,209.731,94.287Z" transform="translate(-152.391 -89.232)" fill="#fff"/>
        <path id="Path_16043" data-name="Path 16043" d="M215.3,118.062c-14.214,8.041-37.144,7.839-51.215-.45-6.7-3.946-10.172-9.01-10.452-14.1-.277,5.515,3.2,11.106,10.452,15.382,14.07,8.289,37,8.492,51.215.45,7.449-4.214,11.019-9.857,10.711-15.465C225.749,109.055,222.182,114.169,215.3,118.062Z" transform="translate(-153.617 -85.795)" fill="#fff"/>
      </g>
      <path id="Rectangle_3685" data-name="Rectangle 3685" d="M.654,0h6.73a.653.653,0,0,1,.653.653v.428a.654.654,0,0,1-.654.654H.654A.654.654,0,0,1,0,1.081V.654A.654.654,0,0,1,.654,0Z" transform="translate(32.773 36.788)" fill="#0c0a78"/>
      <path id="Path_16044" data-name="Path 16044" d="M186.783,116.968h-6.416a.811.811,0,0,0-.81.81v.114a.777.777,0,0,0,.043.215.8.8,0,0,1,.767-.594h6.416a.8.8,0,0,1,.768.594.824.824,0,0,0,.043-.215v-.114A.812.812,0,0,0,186.783,116.968Z" transform="translate(-146.784 -80.179)" fill="url(#linear-gradient-11)"/>
    </g>
    <path id="Path_16049" data-name="Path 16049" d="M186.555,132.362s19.405-6.5,11.549-28.8-23.156-29.093-16.993-46.93c0,0-9.658,14.44-.633,33.977s11,17.292,10.9,26.635a16.859,16.859,0,0,1-9.093,15.119Z" transform="translate(24.422 4.594)" fill="#fff" opacity="0.5"/>
    <path id="Path_16050" data-name="Path 16050" d="M186.058,64.327s-2.021-13.338,10.491-26.78c0,0-11.064,24.712-7.445,36.912C189.1,74.459,186.178,66.7,186.058,64.327Z" transform="translate(26.664)" fill="#fff" opacity="0.5"/>
  </g>
</svg>
